<?xml version="1.0" encoding="utf-8"?>
<!-- Generator: Adobe Illustrator 23.0.0, SVG Export Plug-In . SVG Version: 6.00 Build 0)  -->
<svg version="1.1" id="Layer_1" xmlns="http://www.w3.org/2000/svg" xmlns:xlink="http://www.w3.org/1999/xlink" x="0px" y="0px"
	 viewBox="0 0 350 75" style="enable-background:new 0 0 350 75;" xml:space="preserve">
<style type="text/css">
	.st0{fill-rule:evenodd;clip-rule:evenodd;fill:#C3C5C7;}
	.st1{fill-rule:evenodd;clip-rule:evenodd;fill:#38D430;}
	.st2{fill-rule:evenodd;clip-rule:evenodd;fill:#FFFFFF;}
	.st3{fill:none;}
</style>
<path class="st0" d="M87.2,43.5l-0.1,0l0,30.5c2.5-4.4,5.8-7.5,10.5-10.1C91.5,59.3,88.1,50.8,87.2,43.5 M87.1,33.9
	c3.2-9.2,5.9-13,11.4-19C93.5,12.5,90,8.3,87,4L87.1,33.9z M81.7,70.8c1.9-37.6,18.2-53.4,38.4-52.7c-2.8-4.3,1.5-10.6,10-12.8
	C104.8,5,80.6,25.7,81.7,70.8 M91.3,36.5c-6.7,9.6,2.1,24.5,15.2,32.2c7.1,3.7,14,5.3,22,4.8c-7.6-2.7-12.5-6.5-14.7-11.5
	c-2,0-3.7-0.2-5.6-0.6C95.7,58.7,87,46.1,91.3,36.5"/>
<path class="st1" d="M87.2,40.5l-0.1,0l0,30.5c2.5-4.4,5.8-7.5,10.5-10.1C91.5,56.4,88.1,47.9,87.2,40.5 M87.1,31
	c3.2-9.2,5.9-13,11.4-19C93.5,9.5,90,5.3,87,1L87.1,31z M81.7,67.8c1.9-37.6,18.2-53.4,38.4-52.7c-2.8-4.3,1.5-10.6,10-12.8
	C104.8,2,80.6,22.7,81.7,67.8 M91.3,33.5c-6.7,9.6,2.1,24.5,15.2,32.2c7.1,3.7,14,5.3,22,4.8c-7.6-2.7-12.5-6.5-14.7-11.5
	c-2,0-3.7-0.2-5.6-0.6C95.7,55.7,87,43.1,91.3,33.5"/>
<path class="st0" d="M134,28.2h1.8l-0.5,5.2l-2.6,0.3c-0.4-1.2-0.8-2-1.2-2.4c-0.6-0.7-1.6-1.2-2.9-1.6c-1.3-0.4-3-0.6-5-0.6
	c-2.3,0-4.6,0.3-6.9,0.8c-2.3,0.5-4.4,1.3-6.4,2.4c-1.9,1-3.4,2.2-4.3,3.5c-0.9,1.3-1.2,2.5-0.7,3.6c0.5,1,1.5,1.8,3.2,2.4
	s3.7,0.8,6.1,0.8c2.3,0,4.8-0.3,7.5-0.8c2.8-0.6,5.4-1.4,7.8-2.4l1.6,0.6c-1.5,0.7-3.1,1.3-4.7,1.7c-2.5,0.8-4.9,1.3-7.2,1.7
	c-2.3,0.4-4.8,0.5-7.3,0.5c-5.5,0-9.4-0.9-11.6-2.7c-1.8-1.5-2-3.2-0.5-5.3c1.1-1.5,2.8-2.9,5.3-4.1c2.4-1.2,5.3-2.2,8.6-2.9
	s6.6-1.1,9.8-1.1c1.7,0,3.2,0.1,4.6,0.3c1.3,0.2,2.6,0.5,3.8,1L134,28.2z M139.1,28.2h13.3l-0.7,0.9h-1.5c-0.9,0-1.5,0-1.9,0.1
	c-0.3,0.1-0.5,0.2-0.7,0.4c-0.1,0.1-0.1,0.4,0.1,0.6c0,0.1,0.1,0.1,0.1,0.3l2.9,5.6l11.8-5.8c0.5-0.2,0.8-0.4,0.9-0.5
	s0.2-0.1,0.2-0.2c0.1-0.1,0.1-0.2,0-0.3c-0.1-0.1-0.2-0.1-0.5-0.2c-0.2,0-0.6,0-1.4,0h-1.3l0.7-0.9h11l-0.7,0.9c-1,0-1.7,0-2.2,0.1
	c-0.5,0.1-1,0.1-1.4,0.3c-0.4,0.1-1,0.4-1.8,0.8l-14.7,7l-2.8,3.9c-0.4,0.6-0.6,0.9-0.5,1.1c0.1,0.2,0.3,0.3,0.7,0.4
	s1.4,0.1,3.1,0.1l-0.7,0.9h-13.9l0.7-0.9h1.1c1.1,0,1.9,0,2.4-0.1c0.4-0.1,0.9-0.2,1.2-0.4c0.2-0.1,0.6-0.5,1-1l2.5-3.5l-4.2-7.3
	c-0.3-0.6-0.7-0.9-1.1-1.1c-0.4-0.1-1.3-0.2-2.6-0.2L139.1,28.2z M199.8,28.2h1.8l-0.5,5.2l-2.6,0.3c-0.4-1.2-0.8-2-1.2-2.4
	c-0.6-0.7-1.6-1.2-2.9-1.6c-1.4-0.4-3-0.6-5-0.6c-2.3,0-4.6,0.3-6.9,0.8c-2.3,0.5-4.4,1.3-6.4,2.4c-1.9,1-3.4,2.2-4.3,3.5
	c-0.9,1.3-1.2,2.5-0.7,3.6c0.5,1,1.5,1.8,3.2,2.4c1.7,0.6,3.7,0.8,6.1,0.8c2.3,0,4.8-0.3,7.5-0.8c2.8-0.6,5.4-1.4,7.9-2.4l1.6,0.6
	c-1.5,0.7-3.1,1.3-4.7,1.7c-2.5,0.8-4.9,1.3-7.2,1.7c-2.4,0.4-4.8,0.5-7.3,0.5c-5.5,0-9.4-0.9-11.6-2.7c-1.8-1.5-2-3.2-0.5-5.3
	c1.1-1.5,2.8-2.9,5.3-4.1c2.4-1.2,5.3-2.2,8.6-2.9s6.6-1.1,9.8-1.1c1.7,0,3.2,0.1,4.6,0.3c1.3,0.2,2.6,0.5,3.8,1L199.8,28.2z
	 M208.3,28.2h13.8l-0.7,0.9h-1.3c-1,0-1.7,0-2.2,0.1c-0.5,0.1-0.9,0.2-1.1,0.4c-0.3,0.2-0.6,0.4-0.9,0.8l-7.7,10.8
	c-0.4,0.5-0.5,0.8-0.5,0.9c0,0.1,0.2,0.2,0.5,0.3c0.2,0,0.9,0.1,2,0.1h1.9c2.2,0,4.2-0.1,6-0.4s3.5-0.7,5.1-1.2s3.2-1.3,5.1-2.4
	l2,0.3l-7.4,4.9h-25.6l0.7-0.9h1.1c1.1,0,1.9,0,2.3-0.1c0.4-0.1,0.8-0.2,1.2-0.4s0.7-0.5,1-1l7.5-10.5c0.4-0.5,0.6-0.9,0.5-1.1
	s-0.2-0.3-0.5-0.4c-0.3-0.1-1-0.1-2.2-0.1h-1.1L208.3,28.2z M239,28.2h28.9l0.4,4.1l-2.5,0.4c-0.1-0.7-0.3-1.2-0.7-1.6
	c-0.4-0.4-1-0.7-1.7-1c-0.7-0.3-1.5-0.4-2.4-0.5s-2.6-0.1-5-0.1h-8.6l-4.1,5.7h4.3c1.6,0,2.9-0.1,3.8-0.3c1-0.2,1.7-0.5,2.3-0.9
	c0.4-0.3,0.9-0.7,1.3-1.4l0.2-0.3h2.5l-4.9,6.8h-2.5l0.4-0.6c0.4-0.5,0.6-0.9,0.5-1.1c0-0.2-0.2-0.5-0.5-0.7s-0.8-0.3-1.2-0.4
	c-0.5-0.1-1.4-0.1-2.8-0.1h-4.3l-3.6,5c-0.4,0.5-0.6,0.8-0.5,1s0.1,0.2,0.4,0.2s0.9,0.1,2,0.1h5.3c3,0,5.4-0.2,7.3-0.5
	c1.9-0.3,3.7-0.8,5.5-1.4c1.4-0.5,2.8-1.2,4.4-2.1l2.1,0.4l-7.5,4.9h-30l0.7-0.9h1c1.2,0,1.9,0,2.3-0.1c0.5-0.1,1-0.2,1.4-0.5
	c0.3-0.2,0.6-0.5,0.9-1l7.6-10.7c0.4-0.5,0.5-0.8,0.4-1c-0.1-0.2-0.4-0.3-0.9-0.4c-0.2,0-1.2-0.1-3-0.1L239,28.2z"/>
<path class="st2" d="M164.7,52.1C164.7,52.1,164.7,52.2,164.7,52.1c0,0.1,0,0.1,0,0.2c0,0,0,0,0,0c0,0,0,0-0.1,0
	c0,0-0.1,0.1-0.2,0.1c-0.1,0-0.3,0.1-0.5,0.1s-0.4,0.1-0.7,0.1s-0.5,0-0.8,0c-0.5,0-1,0-1.4-0.1c-0.4-0.1-0.8-0.2-1-0.4
	c-0.3-0.2-0.5-0.4-0.7-0.7c-0.1-0.3-0.2-0.6-0.2-0.9c0-0.3,0.1-0.7,0.2-0.9c0.2-0.3,0.4-0.5,0.7-0.7s0.7-0.3,1.1-0.4
	c0.4-0.1,0.9-0.2,1.4-0.2c0.2,0,0.4,0,0.7,0c0.2,0,0.4,0,0.6,0.1c0.2,0,0.3,0.1,0.5,0.1c0.1,0,0.2,0.1,0.3,0.1c0.1,0,0.1,0,0.1,0.1
	s0,0,0,0s0,0,0,0.1c0,0,0,0.1,0,0.1c0,0,0,0.1,0,0.1s0,0.1,0,0.1c0,0,0,0-0.1,0s-0.1,0-0.1,0c-0.1,0-0.1,0-0.2-0.1s-0.2-0.1-0.4-0.1
	s-0.4-0.1-0.6-0.1s-0.5-0.1-0.8-0.1c-0.4,0-0.7,0-0.9,0.1c-0.3,0.1-0.5,0.2-0.7,0.3s-0.4,0.3-0.5,0.5s-0.2,0.5-0.2,0.7
	s0.1,0.5,0.2,0.7s0.3,0.4,0.5,0.5c0.2,0.1,0.4,0.2,0.7,0.3c0.3,0.1,0.6,0.1,1,0.1c0.3,0,0.6,0,0.8-0.1c0.2,0,0.4-0.1,0.6-0.1
	s0.3-0.1,0.4-0.1c0.1,0,0.2-0.1,0.2-0.1c0,0,0.1,0,0.1,0s0,0,0.1,0c0,0,0,0,0,0.1C164.7,52,164.7,52,164.7,52.1"/>
<path class="st2" d="M171.9,51.1c0,0.3-0.1,0.5-0.2,0.7c-0.1,0.2-0.3,0.4-0.6,0.5c-0.3,0.1-0.6,0.2-0.9,0.3
	c-0.4,0.1-0.8,0.1-1.3,0.1c-0.4,0-0.8,0-1.2-0.1c-0.4-0.1-0.7-0.2-0.9-0.3s-0.4-0.3-0.6-0.5c-0.1-0.2-0.2-0.4-0.2-0.7v-2.6
	c0,0,0,0,0,0c0,0,0,0,0.1,0c0,0,0.1,0,0.2,0c0.1,0,0.1,0,0.2,0s0.2,0,0.2,0c0.1,0,0.1,0,0.2,0c0,0,0.1,0,0.1,0c0,0,0,0,0,0v2.5
	c0,0.2,0,0.4,0.1,0.5c0.1,0.2,0.2,0.3,0.4,0.4c0.2,0.1,0.4,0.2,0.6,0.2c0.2,0,0.5,0.1,0.8,0.1c0.3,0,0.6,0,0.8-0.1
	c0.2,0,0.4-0.1,0.6-0.2c0.2-0.1,0.3-0.2,0.4-0.4c0.1-0.1,0.1-0.3,0.1-0.5v-2.6c0,0,0,0,0,0c0,0,0,0,0.1,0c0,0,0.1,0,0.2,0
	c0.1,0,0.1,0,0.2,0s0.2,0,0.2,0c0.1,0,0.1,0,0.2,0c0,0,0.1,0,0.1,0c0,0,0,0,0,0L171.9,51.1L171.9,51.1z"/>
<path class="st2" d="M178.2,51.5c0,0.2-0.1,0.4-0.2,0.5c-0.1,0.2-0.3,0.3-0.6,0.4c-0.2,0.1-0.5,0.2-0.8,0.2c-0.3,0-0.7,0.1-1.1,0.1
	c-0.3,0-0.5,0-0.7,0c-0.2,0-0.4,0-0.6-0.1c-0.2,0-0.3-0.1-0.4-0.1s-0.2-0.1-0.2-0.1c-0.1,0-0.1-0.1-0.1-0.1c0,0,0-0.1,0-0.2
	c0,0,0-0.1,0-0.1s0-0.1,0-0.1c0,0,0,0,0.1,0c0,0,0.1,0,0.1,0c0.1,0,0.1,0,0.2,0.1s0.2,0.1,0.4,0.1c0.2,0,0.4,0.1,0.6,0.1
	c0.2,0,0.5,0.1,0.8,0.1c0.2,0,0.4,0,0.6,0s0.4-0.1,0.5-0.1c0.1-0.1,0.2-0.1,0.3-0.2c0.1-0.1,0.1-0.2,0.1-0.3c0-0.1-0.1-0.2-0.1-0.3
	c-0.1-0.1-0.2-0.2-0.4-0.2c-0.2-0.1-0.4-0.1-0.6-0.2c-0.2,0-0.4-0.1-0.6-0.2c-0.2-0.1-0.4-0.1-0.6-0.2c-0.2-0.1-0.4-0.2-0.6-0.2
	s-0.3-0.2-0.4-0.3c-0.1-0.1-0.1-0.3-0.1-0.4c0-0.2,0.1-0.3,0.2-0.5s0.3-0.2,0.5-0.3c0.2-0.1,0.5-0.2,0.8-0.2s0.6-0.1,0.9-0.1
	c0.2,0,0.4,0,0.5,0c0.2,0,0.3,0,0.5,0.1c0.1,0,0.3,0.1,0.4,0.1c0.1,0,0.2,0.1,0.2,0.1c0,0,0.1,0,0.1,0c0,0,0,0,0,0s0,0,0,0.1
	c0,0,0,0.1,0,0.1c0,0,0,0.1,0,0.1s0,0.1,0,0.1s0,0-0.1,0s-0.1,0-0.1,0c0,0-0.1,0-0.2,0c-0.1,0-0.2-0.1-0.4-0.1
	c-0.1,0-0.3-0.1-0.5-0.1s-0.4,0-0.6,0c-0.2,0-0.4,0-0.6,0S175,49,174.9,49c-0.1,0-0.2,0.1-0.2,0.2c-0.1,0.1-0.1,0.2-0.1,0.2
	c0,0.1,0.1,0.2,0.1,0.3c0.1,0.1,0.2,0.2,0.4,0.2s0.4,0.1,0.6,0.2s0.4,0.1,0.6,0.2c0.2,0.1,0.4,0.1,0.6,0.2c0.2,0.1,0.4,0.1,0.6,0.2
	c0.2,0.1,0.3,0.2,0.4,0.3C178.1,51.2,178.2,51.3,178.2,51.5"/>
<path class="st2" d="M184.5,48.7c0,0,0,0.1,0,0.1s0,0,0,0.1c0,0,0,0-0.1,0c0,0-0.1,0-0.1,0h-2.2v3.7c0,0,0,0,0,0c0,0,0,0-0.1,0
	c0,0-0.1,0-0.2,0c-0.1,0-0.1,0-0.2,0s-0.2,0-0.2,0s-0.1,0-0.2,0c0,0-0.1,0-0.1,0c0,0,0,0,0,0v-3.7h-2.2c0,0-0.1,0-0.1,0
	s-0.1,0-0.1,0c0,0,0,0,0-0.1s0-0.1,0-0.1s0-0.1,0-0.1s0-0.1,0-0.1c0,0,0,0,0.1,0c0,0,0.1,0,0.1,0h5.4c0,0,0.1,0,0.1,0s0.1,0,0.1,0
	s0,0,0,0.1C184.4,48.6,184.5,48.7,184.5,48.7"/>
<path class="st2" d="M191.8,50.5c0,0.3-0.1,0.7-0.2,0.9c-0.1,0.3-0.4,0.5-0.7,0.7c-0.3,0.2-0.7,0.3-1.1,0.4c-0.4,0.1-1,0.2-1.6,0.2
	s-1.1,0-1.5-0.1c-0.4-0.1-0.8-0.2-1.1-0.4s-0.5-0.4-0.6-0.7c-0.1-0.3-0.2-0.6-0.2-0.9c0-0.3,0.1-0.6,0.2-0.9
	c0.1-0.3,0.4-0.5,0.7-0.7s0.7-0.3,1.1-0.4s1-0.2,1.6-0.2c0.6,0,1.1,0,1.5,0.1c0.4,0.1,0.8,0.2,1.1,0.4s0.5,0.4,0.6,0.7
	C191.7,49.9,191.8,50.2,191.8,50.5 M190.7,50.6c0-0.2,0-0.5-0.1-0.7s-0.2-0.4-0.4-0.5c-0.2-0.2-0.4-0.3-0.7-0.3
	c-0.3-0.1-0.7-0.1-1.1-0.1s-0.8,0-1.1,0.1s-0.6,0.2-0.7,0.4s-0.3,0.3-0.4,0.5c-0.1,0.2-0.1,0.4-0.1,0.6c0,0.2,0,0.5,0.1,0.7
	c0.1,0.2,0.2,0.4,0.4,0.5c0.2,0.2,0.4,0.3,0.7,0.3c0.3,0.1,0.7,0.1,1.1,0.1c0.4,0,0.8,0,1.1-0.1s0.6-0.2,0.8-0.4s0.3-0.3,0.4-0.5
	C190.6,51,190.7,50.8,190.7,50.6"/>
<path class="st2" d="M201.9,52.6C201.9,52.6,201.9,52.6,201.9,52.6c0,0.1-0.1,0.1-0.1,0.1s-0.1,0-0.2,0c-0.1,0-0.1,0-0.2,0
	s-0.2,0-0.2,0s-0.1,0-0.2,0c0,0-0.1,0-0.1,0s0,0,0,0v-3.7h0l-2.8,3.7c0,0,0,0-0.1,0c0,0-0.1,0-0.1,0c0,0-0.1,0-0.1,0
	c-0.1,0-0.1,0-0.2,0s-0.2,0-0.2,0c-0.1,0-0.1,0-0.1,0c0,0-0.1,0-0.1,0c0,0,0,0-0.1,0l-2.6-3.7h0v3.7c0,0,0,0,0,0c0,0-0.1,0-0.1,0
	s-0.1,0-0.2,0c-0.1,0-0.1,0-0.3,0c-0.1,0-0.2,0-0.2,0s-0.1,0-0.2,0c0,0-0.1,0-0.1,0s0,0,0,0v-3.9c0-0.1,0-0.2,0.1-0.2
	c0.1,0,0.2-0.1,0.3-0.1h0.6c0.1,0,0.2,0,0.3,0c0.1,0,0.2,0,0.3,0.1c0.1,0,0.1,0.1,0.2,0.1c0.1,0,0.1,0.1,0.1,0.2l2.2,3h0l2.3-3
	c0-0.1,0.1-0.1,0.1-0.2c0.1,0,0.1-0.1,0.2-0.1s0.1,0,0.2-0.1c0.1,0,0.2,0,0.3,0h0.7c0.1,0,0.1,0,0.2,0s0.1,0,0.1,0
	c0,0,0.1,0,0.1,0.1c0,0,0,0.1,0,0.1L201.9,52.6L201.9,52.6z"/>
<path class="st2" d="M211.6,49.7c0,0.2-0.1,0.4-0.2,0.6s-0.3,0.3-0.6,0.4s-0.5,0.2-0.9,0.3c-0.4,0.1-0.8,0.1-1.2,0.1h-0.9v1.5
	c0,0,0,0,0,0c0,0-0.1,0-0.1,0c0,0-0.1,0-0.2,0c-0.1,0-0.1,0-0.2,0s-0.2,0-0.2,0s-0.1,0-0.2,0c0,0-0.1,0-0.1,0c0,0,0,0,0,0v-3.9
	c0-0.1,0-0.2,0.1-0.2s0.2-0.1,0.3-0.1h1.7c0.2,0,0.3,0,0.5,0c0.1,0,0.3,0,0.6,0c0.2,0,0.4,0.1,0.6,0.1s0.4,0.2,0.6,0.2
	s0.3,0.2,0.4,0.3C211.5,49.4,211.6,49.5,211.6,49.7 M210.5,49.7c0-0.2-0.1-0.3-0.2-0.4s-0.3-0.2-0.4-0.3c-0.2-0.1-0.4-0.1-0.5-0.1
	c-0.2,0-0.4,0-0.6,0h-1v1.7h0.9c0.3,0,0.6,0,0.8-0.1c0.2,0,0.4-0.1,0.5-0.2s0.2-0.2,0.3-0.3C210.4,50,210.5,49.9,210.5,49.7"/>
<path class="st2" d="M218.1,52.5c0,0,0.1,0.1,0.1,0.1s0,0-0.1,0.1c0,0-0.1,0-0.2,0c-0.1,0-0.2,0-0.3,0s-0.2,0-0.3,0
	c-0.1,0-0.1,0-0.2,0c0,0-0.1,0-0.1,0c0,0,0,0-0.1,0l-0.7-1h-3.2l-0.6,1c0,0,0,0-0.1,0s-0.1,0-0.1,0c0,0-0.1,0-0.2,0s-0.2,0-0.3,0
	c-0.1,0-0.2,0-0.3,0c-0.1,0-0.1,0-0.2,0c0,0,0,0,0-0.1s0-0.1,0.1-0.1l2.6-3.9c0,0,0,0,0.1-0.1c0,0,0.1,0,0.1,0c0.1,0,0.1,0,0.2,0
	c0.1,0,0.2,0,0.3,0c0.1,0,0.2,0,0.3,0s0.1,0,0.2,0c0.1,0,0.1,0,0.1,0s0.1,0,0.1,0.1L218.1,52.5z M214.7,49L214.7,49l-1.4,2.1h2.7
	L214.7,49z"/>
<path class="st2" d="M220.4,52.6C220.4,52.6,220.4,52.6,220.4,52.6c0,0.1-0.1,0.1-0.1,0.1c0,0-0.1,0-0.2,0c-0.1,0-0.1,0-0.2,0
	s-0.2,0-0.2,0s-0.1,0-0.2,0c0,0-0.1,0-0.1,0c0,0,0,0,0,0v-4c0,0,0,0,0,0c0,0,0.1,0,0.1,0s0.1,0,0.2,0c0.1,0,0.1,0,0.2,0
	c0.1,0,0.2,0,0.2,0s0.1,0,0.2,0c0,0,0.1,0,0.1,0c0,0,0,0,0,0L220.4,52.6L220.4,52.6z"/>
<path class="st2" d="M228.4,52.4c0,0,0,0.1,0,0.1s-0.1,0.1-0.1,0.1c0,0-0.1,0-0.1,0c-0.1,0-0.1,0-0.2,0h-0.3c-0.1,0-0.2,0-0.3,0
	c-0.1,0-0.2,0-0.2-0.1s-0.1-0.1-0.2-0.1c-0.1,0-0.1-0.1-0.2-0.2l-2.4-2.4c-0.1-0.1-0.2-0.2-0.4-0.4s-0.2-0.3-0.4-0.4h0
	c0,0.2,0,0.3,0,0.5c0,0.2,0,0.3,0,0.5v2.5c0,0,0,0,0,0c0,0-0.1,0-0.1,0s-0.1,0-0.2,0c-0.1,0-0.1,0-0.2,0s-0.2,0-0.2,0
	c-0.1,0-0.1,0-0.2,0c0,0-0.1,0-0.1,0c0,0,0,0,0,0v-3.9c0-0.1,0.1-0.2,0.1-0.2c0.1,0,0.2-0.1,0.3-0.1h0.5c0.1,0,0.2,0,0.3,0
	c0.1,0,0.1,0,0.2,0c0.1,0,0.1,0.1,0.2,0.1c0.1,0,0.1,0.1,0.2,0.2l1.8,1.8c0.1,0.1,0.2,0.2,0.3,0.3s0.2,0.2,0.3,0.3
	c0.1,0.1,0.2,0.2,0.3,0.3s0.2,0.2,0.3,0.3h0c0-0.2,0-0.3,0-0.5c0-0.2,0-0.4,0-0.5v-2.3c0,0,0,0,0,0c0,0,0.1,0,0.1,0s0.1,0,0.2,0
	s0.1,0,0.3,0c0.1,0,0.2,0,0.2,0c0.1,0,0.1,0,0.2,0c0,0,0.1,0,0.1,0c0,0,0,0,0,0L228.4,52.4L228.4,52.4z"/>
<path class="st2" d="M235.4,48.7c0,0,0,0.1,0,0.1s0,0,0,0.1c0,0,0,0-0.1,0c0,0-0.1,0-0.1,0H233v3.7c0,0,0,0,0,0c0,0,0,0-0.1,0
	c0,0-0.1,0-0.2,0c-0.1,0-0.1,0-0.2,0s-0.2,0-0.2,0s-0.1,0-0.2,0c0,0-0.1,0-0.1,0c0,0,0,0,0,0v-3.7h-2.2c0,0-0.1,0-0.1,0
	s-0.1,0-0.1,0c0,0,0,0,0-0.1s0-0.1,0-0.1s0-0.1,0-0.1s0-0.1,0-0.1c0,0,0,0,0.1,0c0,0,0.1,0,0.1,0h5.4c0,0,0.1,0,0.1,0s0.1,0,0.1,0
	s0,0,0,0.1C235.4,48.6,235.4,48.7,235.4,48.7"/>
<path class="st2" d="M237.5,52.6C237.5,52.6,237.5,52.6,237.5,52.6c0,0.1-0.1,0.1-0.1,0.1c0,0-0.1,0-0.2,0c-0.1,0-0.1,0-0.2,0
	s-0.2,0-0.2,0s-0.1,0-0.2,0c0,0-0.1,0-0.1,0c0,0,0,0,0,0v-4c0,0,0,0,0,0c0,0,0.1,0,0.1,0s0.1,0,0.2,0c0.1,0,0.1,0,0.2,0
	c0.1,0,0.2,0,0.2,0s0.1,0,0.2,0c0,0,0.1,0,0.1,0c0,0,0,0,0,0L237.5,52.6L237.5,52.6z"/>
<path class="st2" d="M245.5,52.4c0,0,0,0.1,0,0.1s-0.1,0.1-0.1,0.1c0,0-0.1,0-0.1,0c-0.1,0-0.1,0-0.2,0h-0.3c-0.1,0-0.2,0-0.3,0
	c-0.1,0-0.2,0-0.2-0.1s-0.1-0.1-0.2-0.1c-0.1,0-0.1-0.1-0.2-0.2l-2.4-2.4c-0.1-0.1-0.2-0.2-0.4-0.4s-0.2-0.3-0.4-0.4h0
	c0,0.2,0,0.3,0,0.5c0,0.2,0,0.3,0,0.5v2.5c0,0,0,0,0,0c0,0-0.1,0-0.1,0s-0.1,0-0.2,0c-0.1,0-0.1,0-0.2,0s-0.2,0-0.2,0
	c-0.1,0-0.1,0-0.2,0c0,0-0.1,0-0.1,0c0,0,0,0,0,0v-3.9c0-0.1,0.1-0.2,0.1-0.2c0.1,0,0.2-0.1,0.3-0.1h0.5c0.1,0,0.2,0,0.3,0
	c0.1,0,0.1,0,0.2,0c0.1,0,0.1,0.1,0.2,0.1c0.1,0,0.1,0.1,0.2,0.2l1.8,1.8c0.1,0.1,0.2,0.2,0.3,0.3s0.2,0.2,0.3,0.3
	c0.1,0.1,0.2,0.2,0.3,0.3c0.1,0.1,0.2,0.2,0.3,0.3h0c0-0.2,0-0.3,0-0.5c0-0.2,0-0.4,0-0.5v-2.3c0,0,0,0,0,0c0,0,0.1,0,0.1,0
	s0.1,0,0.2,0s0.1,0,0.3,0c0.1,0,0.2,0,0.2,0c0.1,0,0.1,0,0.2,0c0,0,0.1,0,0.1,0c0,0,0,0,0,0L245.5,52.4L245.5,52.4z"/>
<path class="st2" d="M253.4,49c0,0,0,0.1,0,0.1s0,0.1,0,0.1c0,0,0,0-0.1,0c0,0-0.1,0-0.1,0c-0.1,0-0.1,0-0.2-0.1s-0.3-0.1-0.4-0.1
	s-0.4-0.1-0.7-0.1s-0.6-0.1-0.9-0.1c-0.4,0-0.8,0-1.2,0.1c-0.3,0.1-0.6,0.2-0.9,0.3c-0.2,0.2-0.4,0.3-0.6,0.5
	c-0.1,0.2-0.2,0.4-0.2,0.7c0,0.3,0.1,0.5,0.2,0.7c0.1,0.2,0.3,0.4,0.6,0.5c0.2,0.1,0.5,0.2,0.9,0.3c0.3,0.1,0.7,0.1,1.1,0.1
	c0.2,0,0.5,0,0.7,0c0.2,0,0.5-0.1,0.7-0.1v-1.2h-1.8c-0.1,0-0.1,0-0.1,0c0,0-0.1-0.1-0.1-0.2c0,0,0-0.1,0-0.1s0,0,0-0.1
	c0,0,0,0,0.1,0c0,0,0.1,0,0.1,0h2.5c0,0,0.1,0,0.1,0c0,0,0.1,0,0.1,0s0.1,0,0.1,0.1s0,0.1,0,0.1v1.6c0,0.1,0,0.1-0.1,0.2
	c0,0-0.1,0.1-0.2,0.1s-0.3,0.1-0.4,0.1c-0.2,0-0.4,0.1-0.6,0.1c-0.2,0-0.4,0-0.6,0.1c-0.2,0-0.4,0-0.6,0c-0.6,0-1.1,0-1.6-0.2
	c-0.5-0.1-0.9-0.2-1.2-0.4c-0.3-0.2-0.6-0.4-0.8-0.7s-0.3-0.5-0.3-0.9c0-0.3,0.1-0.6,0.3-0.9s0.4-0.5,0.8-0.7s0.8-0.3,1.2-0.4
	c0.5-0.1,1-0.2,1.6-0.2c0.3,0,0.6,0,0.8,0c0.3,0,0.5,0.1,0.7,0.1c0.2,0,0.4,0.1,0.5,0.1c0.1,0,0.2,0.1,0.3,0.1
	c0.1,0,0.1,0.1,0.1,0.1C253.4,48.9,253.4,49,253.4,49"/>
<polygon class="st1" points="154.2,47.7 152.3,50.7 154.2,53.8 156.1,50.7 "/>
<rect class="st3" width="350" height="75"/>
</svg>
