<?xml version="1.0" encoding="utf-8"?>
<!-- Generator: Adobe Illustrator 23.0.0, SVG Export Plug-In . SVG Version: 6.00 Build 0)  -->
<svg version="1.1" id="Layer_1" xmlns="http://www.w3.org/2000/svg" xmlns:xlink="http://www.w3.org/1999/xlink" x="0px" y="0px"
	 viewBox="0 0 250 100" style="enable-background:new 0 0 250 100;" xml:space="preserve">
<style type="text/css">
	.st0{fill-rule:evenodd;clip-rule:evenodd;fill:#010101;}
	.st1{fill-rule:evenodd;clip-rule:evenodd;fill:#C3C5C7;}
	.st2{fill-rule:evenodd;clip-rule:evenodd;fill:#00FF01;}
	.st3{fill-rule:evenodd;clip-rule:evenodd;fill:#FFFFFF;}
</style>
<path class="st0" d="M125,0C59.11,0,5.69,22.39,5.69,50S59.11,100,125,100s119.31-22.39,119.31-50S190.89,0,125,0L125,0z"/>
<path class="st1" d="M49.79,56.25l-0.12,0.01l0.01,29.96c2.46-4.29,5.72-7.41,10.36-9.92C54.05,71.81,50.72,63.46,49.79,56.25
	L49.79,56.25z M49.68,46.84c3.12-9.05,5.83-12.8,11.24-18.62c-4.91-2.45-8.33-6.55-11.27-10.81L49.68,46.84L49.68,46.84z
	 M44.37,83.04c1.87-36.94,17.9-52.44,37.76-51.79c-2.7-4.19,1.46-10.43,9.82-12.6C67.16,18.43,43.33,38.72,44.37,83.04L44.37,83.04z
	 M53.8,49.37c-6.55,9.43,2.02,24.12,14.97,31.61c6.96,3.68,13.75,5.17,21.61,4.76c-7.46-2.62-12.26-6.36-14.48-11.25
	c-1.96,0-3.62-0.19-5.53-0.61C58.14,71.15,49.57,58.8,53.8,49.37L53.8,49.37z"/>
<path class="st2" d="M49.79,53.31l-0.12,0.01l0.01,29.96c2.46-4.29,5.72-7.41,10.36-9.92C54.05,68.87,50.72,60.52,49.79,53.31
	L49.79,53.31z M49.68,43.9c3.12-9.05,5.83-12.8,11.24-18.62c-4.91-2.45-8.33-6.55-11.27-10.81L49.68,43.9L49.68,43.9z M44.37,80.11
	c1.87-36.94,17.9-52.44,37.76-51.79c-2.7-4.19,1.46-10.43,9.82-12.6C67.16,15.5,43.33,35.79,44.37,80.11L44.37,80.11z M53.8,46.43
	c-6.55,9.43,2.02,24.12,14.97,31.61c6.96,3.68,13.75,5.17,21.61,4.76c-7.46-2.62-12.26-6.36-14.48-11.25
	c-1.96,0-3.62-0.19-5.53-0.61C58.14,68.22,49.57,55.87,53.8,46.43L53.8,46.43z"/>
<path class="st1" d="M95.8,40.99h1.8l-0.45,5.08l-2.53,0.28c-0.42-1.17-0.81-1.96-1.17-2.36c-0.61-0.65-1.57-1.16-2.9-1.54
	c-1.33-0.38-2.95-0.57-4.87-0.57c-2.26,0-4.52,0.26-6.8,0.79c-2.27,0.53-4.37,1.3-6.27,2.32c-1.91,1.02-3.32,2.17-4.23,3.44
	c-0.94,1.31-1.18,2.48-0.72,3.51c0.46,1.03,1.51,1.82,3.16,2.37c1.64,0.55,3.64,0.83,6,0.83c2.22,0,4.69-0.28,7.41-0.83
	c2.72-0.56,5.29-1.33,7.71-2.34l1.58,0.6c-1.51,0.67-3.04,1.24-4.58,1.7c-2.44,0.75-4.82,1.3-7.13,1.66
	c-2.31,0.36-4.69,0.54-7.15,0.54c-5.43,0-9.22-0.88-11.35-2.63c-1.77-1.46-1.93-3.19-0.5-5.2c1.06-1.48,2.79-2.82,5.2-4.02
	c2.41-1.2,5.23-2.15,8.47-2.86c3.24-0.71,6.44-1.06,9.59-1.06c1.69,0,3.18,0.1,4.49,0.3c1.3,0.2,2.54,0.52,3.71,0.97L95.8,40.99
	L95.8,40.99z M100.86,40.99h13.09l-0.66,0.92h-1.48c-0.9,0-1.51,0.04-1.82,0.11c-0.31,0.07-0.53,0.19-0.65,0.36
	c-0.1,0.15-0.09,0.35,0.05,0.59c0.04,0.06,0.09,0.14,0.14,0.25l2.89,5.51l11.62-5.71c0.47-0.24,0.76-0.39,0.87-0.46
	s0.19-0.14,0.24-0.22c0.07-0.1,0.07-0.19,0-0.26c-0.08-0.07-0.23-0.12-0.47-0.16c-0.16-0.01-0.62-0.02-1.39-0.02h-1.3l0.66-0.92
	h10.82l-0.66,0.92c-0.95-0.01-1.67,0.02-2.17,0.08c-0.5,0.06-0.94,0.15-1.32,0.27c-0.38,0.12-0.98,0.38-1.79,0.77l-14.41,6.88
	l-2.74,3.83c-0.4,0.56-0.56,0.92-0.47,1.09c0.09,0.17,0.33,0.29,0.73,0.37c0.4,0.08,1.42,0.11,3.08,0.11l-0.66,0.92H99.4l0.66-0.92
	h1.05c1.12,0,1.9-0.04,2.34-0.13c0.44-0.09,0.84-0.23,1.19-0.43c0.25-0.14,0.57-0.48,0.95-1.02l2.45-3.43l-4.13-7.17
	c-0.32-0.58-0.69-0.93-1.1-1.04c-0.41-0.11-1.28-0.18-2.61-0.19L100.86,40.99L100.86,40.99z M160.45,40.99h1.8l-0.45,5.08
	l-2.53,0.28c-0.42-1.17-0.81-1.96-1.17-2.36c-0.61-0.65-1.57-1.16-2.9-1.54c-1.33-0.38-2.95-0.57-4.87-0.57
	c-2.26,0-4.52,0.26-6.8,0.79c-2.27,0.53-4.37,1.3-6.27,2.32c-1.91,1.02-3.32,2.17-4.23,3.44c-0.94,1.31-1.18,2.48-0.72,3.51
	c0.46,1.03,1.51,1.82,3.16,2.37c1.64,0.55,3.64,0.83,6,0.83c2.22,0,4.69-0.28,7.41-0.83c2.72-0.56,5.29-1.33,7.71-2.34l1.58,0.6
	c-1.51,0.67-3.04,1.24-4.58,1.7c-2.44,0.75-4.82,1.3-7.13,1.66c-2.31,0.36-4.69,0.54-7.15,0.54c-5.43,0-9.22-0.88-11.35-2.63
	c-1.77-1.46-1.93-3.19-0.5-5.2c1.06-1.48,2.79-2.82,5.2-4.02c2.41-1.2,5.23-2.15,8.47-2.86c3.24-0.71,6.44-1.06,9.59-1.06
	c1.69,0,3.18,0.1,4.49,0.3c1.3,0.2,2.54,0.52,3.71,0.97L160.45,40.99L160.45,40.99z M168.78,40.99h13.56l-0.66,0.92h-1.25
	c-0.97,0-1.68,0.04-2.14,0.12c-0.46,0.08-0.84,0.2-1.13,0.35c-0.29,0.15-0.58,0.43-0.87,0.83l-7.6,10.63
	c-0.35,0.49-0.52,0.78-0.5,0.87c0.01,0.13,0.16,0.23,0.45,0.28c0.2,0.04,0.86,0.07,1.98,0.07h1.88c2.16,0,4.13-0.14,5.91-0.41
	c1.78-0.27,3.44-0.67,4.96-1.19c1.53-0.52,3.19-1.3,5-2.33l2,0.33l-7.32,4.77h-25.17l0.66-0.92h1.1c1.07,0,1.82-0.04,2.24-0.12
	c0.42-0.08,0.8-0.21,1.14-0.4c0.33-0.19,0.66-0.5,0.98-0.96l7.41-10.37c0.38-0.53,0.54-0.88,0.48-1.06
	c-0.06-0.18-0.23-0.31-0.53-0.39c-0.3-0.08-1.01-0.12-2.15-0.12h-1.1L168.78,40.99L168.78,40.99z M199,40.99h28.43l0.42,4.01
	l-2.46,0.36c-0.08-0.66-0.32-1.17-0.7-1.55c-0.38-0.38-0.94-0.69-1.66-0.96c-0.72-0.26-1.52-0.44-2.39-0.52
	c-0.87-0.09-2.51-0.13-4.94-0.13h-8.48l-3.99,5.58h4.22c1.56,0,2.82-0.11,3.78-0.34c0.96-0.23,1.71-0.52,2.26-0.86
	c0.42-0.25,0.85-0.7,1.3-1.33l0.18-0.25h2.46l-4.78,6.69h-2.46l0.41-0.58c0.36-0.51,0.54-0.88,0.52-1.1
	c-0.01-0.23-0.18-0.44-0.51-0.64c-0.33-0.2-0.74-0.34-1.23-0.41c-0.49-0.07-1.39-0.11-2.7-0.11h-4.22l-3.54,4.95
	c-0.37,0.52-0.54,0.83-0.51,0.94c0.03,0.11,0.15,0.19,0.36,0.25c0.21,0.05,0.88,0.08,2,0.08h5.25c2.93,0,5.33-0.15,7.19-0.46
	c1.87-0.31,3.65-0.77,5.36-1.41c1.34-0.49,2.78-1.19,4.33-2.09l2.03,0.35l-7.32,4.77h-29.51l0.66-0.92h1c1.17,0,1.92-0.03,2.25-0.1
	c0.5-0.09,0.94-0.25,1.33-0.46c0.27-0.14,0.58-0.46,0.92-0.94l7.5-10.5c0.34-0.48,0.46-0.8,0.36-0.96c-0.1-0.16-0.39-0.29-0.86-0.37
	c-0.25-0.05-1.22-0.08-2.93-0.08L199,40.99L199,40.99z"/>
<path class="st3" d="M125.95,64.45c0,0.03,0,0.06-0.01,0.09c0,0.03-0.01,0.05-0.02,0.07c-0.01,0.02-0.02,0.04-0.04,0.05
	c-0.02,0.01-0.04,0.03-0.08,0.05c-0.04,0.02-0.12,0.05-0.25,0.1c-0.13,0.04-0.28,0.09-0.47,0.13c-0.19,0.04-0.4,0.08-0.65,0.11
	c-0.24,0.03-0.51,0.04-0.8,0.04c-0.5,0-0.95-0.04-1.35-0.13c-0.4-0.09-0.74-0.22-1.03-0.4c-0.28-0.18-0.5-0.39-0.65-0.65
	c-0.15-0.26-0.23-0.55-0.23-0.89c0-0.34,0.08-0.65,0.25-0.92c0.16-0.27,0.39-0.5,0.69-0.68c0.3-0.19,0.65-0.33,1.06-0.43
	c0.41-0.1,0.87-0.15,1.37-0.15c0.22,0,0.44,0.01,0.65,0.03c0.21,0.02,0.4,0.05,0.58,0.08c0.18,0.03,0.34,0.07,0.47,0.12
	c0.14,0.04,0.23,0.08,0.29,0.11c0.05,0.03,0.09,0.05,0.1,0.07c0.02,0.01,0.03,0.03,0.04,0.05c0.01,0.02,0.02,0.04,0.02,0.07
	c0.01,0.03,0.01,0.06,0.01,0.1c0,0.04,0,0.08-0.01,0.11s-0.02,0.05-0.04,0.08c-0.02,0.02-0.03,0.04-0.06,0.04
	c-0.02,0.01-0.05,0.01-0.08,0.01c-0.06,0-0.13-0.02-0.23-0.06c-0.1-0.04-0.23-0.09-0.38-0.14c-0.16-0.05-0.35-0.1-0.57-0.14
	c-0.22-0.04-0.49-0.06-0.81-0.06c-0.34,0-0.65,0.04-0.93,0.11c-0.28,0.07-0.52,0.18-0.72,0.33c-0.2,0.14-0.35,0.32-0.46,0.52
	c-0.11,0.21-0.16,0.44-0.16,0.71c0,0.26,0.05,0.49,0.16,0.7c0.11,0.2,0.26,0.37,0.45,0.51c0.2,0.14,0.44,0.24,0.72,0.31
	c0.29,0.07,0.61,0.1,0.97,0.1c0.31,0,0.57-0.02,0.8-0.06c0.23-0.04,0.42-0.09,0.58-0.14c0.16-0.05,0.29-0.1,0.4-0.14
	c0.1-0.04,0.18-0.06,0.24-0.06c0.03,0,0.05,0,0.07,0.01c0.02,0.01,0.04,0.02,0.05,0.04c0.01,0.02,0.02,0.04,0.03,0.08
	C125.94,64.36,125.95,64.41,125.95,64.45L125.95,64.45z"/>
<path class="st3" d="M133.07,63.51c0,0.25-0.07,0.48-0.2,0.67c-0.14,0.2-0.33,0.36-0.58,0.5c-0.25,0.14-0.56,0.24-0.92,0.31
	c-0.36,0.07-0.78,0.11-1.24,0.11c-0.42,0-0.81-0.03-1.16-0.1c-0.35-0.07-0.65-0.16-0.9-0.29c-0.25-0.13-0.44-0.29-0.57-0.49
	c-0.13-0.19-0.2-0.42-0.2-0.67v-2.57c0-0.02,0.01-0.03,0.02-0.04c0.02-0.01,0.04-0.02,0.08-0.03c0.04-0.01,0.09-0.01,0.15-0.02
	c0.06-0.01,0.15-0.01,0.25-0.01c0.09,0,0.18,0,0.24,0.01c0.07,0.01,0.12,0.01,0.16,0.02c0.04,0.01,0.06,0.02,0.08,0.03
	c0.02,0.01,0.02,0.03,0.02,0.04v2.5c0,0.19,0.04,0.36,0.13,0.5c0.09,0.14,0.21,0.26,0.38,0.36c0.16,0.09,0.36,0.17,0.59,0.21
	c0.23,0.05,0.49,0.07,0.78,0.07c0.3,0,0.56-0.02,0.79-0.07c0.23-0.05,0.43-0.12,0.59-0.21c0.16-0.09,0.28-0.21,0.37-0.35
	c0.08-0.14,0.13-0.3,0.13-0.49v-2.53c0-0.02,0.01-0.03,0.02-0.04c0.02-0.01,0.04-0.02,0.08-0.03c0.04-0.01,0.09-0.01,0.16-0.02
	c0.07-0.01,0.15-0.01,0.25-0.01c0.09,0,0.17,0,0.24,0.01c0.07,0.01,0.12,0.01,0.15,0.02c0.04,0.01,0.07,0.02,0.08,0.03
	c0.02,0.01,0.03,0.03,0.03,0.04V63.51L133.07,63.51z"/>
<path class="st3" d="M139.21,63.88c0,0.19-0.07,0.37-0.2,0.52s-0.32,0.28-0.55,0.39s-0.51,0.19-0.83,0.24
	c-0.32,0.05-0.66,0.08-1.03,0.08c-0.26,0-0.49-0.01-0.71-0.04c-0.22-0.02-0.41-0.05-0.59-0.09s-0.32-0.07-0.43-0.11
	c-0.12-0.04-0.2-0.07-0.24-0.09c-0.05-0.03-0.08-0.06-0.1-0.1c-0.02-0.04-0.03-0.09-0.03-0.16c0-0.05,0-0.09,0.01-0.12
	c0.01-0.03,0.02-0.06,0.04-0.08s0.04-0.03,0.06-0.04c0.02-0.01,0.05-0.01,0.08-0.01c0.06,0,0.13,0.02,0.23,0.05
	c0.1,0.04,0.23,0.08,0.39,0.12c0.16,0.04,0.35,0.08,0.57,0.12c0.22,0.04,0.48,0.06,0.77,0.06c0.22,0,0.42-0.02,0.61-0.05
	c0.18-0.03,0.34-0.08,0.47-0.14c0.13-0.06,0.23-0.13,0.31-0.22c0.07-0.09,0.11-0.18,0.11-0.29c0-0.12-0.05-0.22-0.15-0.3
	c-0.1-0.08-0.23-0.16-0.39-0.22c-0.16-0.06-0.35-0.12-0.55-0.17c-0.21-0.05-0.42-0.11-0.64-0.16c-0.22-0.05-0.43-0.11-0.63-0.18
	s-0.39-0.14-0.55-0.23c-0.16-0.09-0.29-0.19-0.39-0.32c-0.1-0.12-0.15-0.27-0.15-0.43c0-0.17,0.06-0.33,0.17-0.46
	c0.12-0.14,0.28-0.25,0.49-0.34c0.21-0.09,0.45-0.16,0.74-0.21s0.6-0.07,0.93-0.07c0.17,0,0.34,0.01,0.51,0.02
	c0.17,0.02,0.33,0.04,0.49,0.06c0.15,0.03,0.29,0.06,0.41,0.09c0.12,0.03,0.2,0.06,0.23,0.08c0.04,0.02,0.06,0.04,0.07,0.05
	c0.01,0.01,0.02,0.03,0.03,0.04c0.01,0.02,0.01,0.04,0.02,0.07c0,0.03,0.01,0.06,0.01,0.1c0,0.04,0,0.07-0.01,0.1
	c-0.01,0.03-0.01,0.06-0.03,0.08c-0.01,0.02-0.03,0.04-0.05,0.04c-0.02,0.01-0.05,0.01-0.07,0.01c-0.04,0-0.11-0.01-0.2-0.04
	c-0.09-0.03-0.21-0.06-0.34-0.1c-0.13-0.04-0.29-0.07-0.48-0.1c-0.18-0.03-0.39-0.05-0.62-0.05c-0.21,0-0.4,0.02-0.56,0.05
	s-0.29,0.07-0.39,0.12c-0.1,0.05-0.18,0.11-0.23,0.18c-0.05,0.07-0.08,0.15-0.08,0.22c0,0.12,0.05,0.21,0.15,0.3
	c0.1,0.08,0.23,0.16,0.39,0.22s0.35,0.12,0.56,0.18c0.21,0.05,0.42,0.11,0.64,0.16c0.22,0.05,0.43,0.11,0.64,0.18
	c0.21,0.07,0.4,0.14,0.56,0.23c0.16,0.09,0.3,0.19,0.4,0.31C139.16,63.57,139.21,63.71,139.21,63.88L139.21,63.88z"/>
<path class="st3" d="M145.39,61.13c0,0.04,0,0.08-0.01,0.11c-0.01,0.03-0.02,0.05-0.04,0.07c-0.02,0.02-0.04,0.03-0.07,0.04
	c-0.03,0.01-0.05,0.01-0.09,0.01h-2.16v3.59c0,0.02-0.01,0.03-0.02,0.04c-0.02,0.01-0.04,0.02-0.08,0.03
	c-0.04,0.01-0.09,0.01-0.16,0.02c-0.07,0.01-0.15,0.01-0.25,0.01c-0.09,0-0.18,0-0.24-0.01c-0.07-0.01-0.12-0.01-0.16-0.02
	c-0.04-0.01-0.07-0.02-0.08-0.03s-0.02-0.03-0.02-0.04v-3.59h-2.16c-0.03,0-0.06,0-0.09-0.01c-0.03-0.01-0.05-0.02-0.06-0.04
	c-0.02-0.02-0.03-0.04-0.04-0.07c-0.01-0.03-0.01-0.07-0.01-0.11c0-0.04,0-0.08,0.01-0.11c0.01-0.03,0.02-0.06,0.04-0.08
	c0.02-0.02,0.04-0.03,0.06-0.04c0.03-0.01,0.05-0.01,0.09-0.01h5.33c0.03,0,0.06,0,0.09,0.01c0.03,0.01,0.05,0.02,0.07,0.04
	c0.02,0.02,0.03,0.04,0.04,0.08C145.38,61.06,145.39,61.09,145.39,61.13L145.39,61.13z"/>
<path class="st3" d="M152.58,62.92c0,0.34-0.07,0.64-0.22,0.91c-0.15,0.27-0.36,0.5-0.65,0.69c-0.29,0.19-0.65,0.33-1.09,0.44
	c-0.44,0.1-0.95,0.15-1.54,0.15c-0.58,0-1.08-0.05-1.5-0.14c-0.42-0.09-0.77-0.23-1.04-0.41c-0.27-0.18-0.48-0.4-0.61-0.66
	c-0.13-0.26-0.2-0.56-0.2-0.91c0-0.33,0.07-0.62,0.22-0.89c0.15-0.27,0.37-0.49,0.66-0.68c0.29-0.19,0.66-0.33,1.1-0.43
	c0.44-0.1,0.95-0.15,1.54-0.15c0.57,0,1.06,0.05,1.48,0.14c0.42,0.09,0.77,0.23,1.05,0.4c0.28,0.18,0.49,0.39,0.62,0.65
	C152.51,62.29,152.58,62.59,152.58,62.92L152.58,62.92z M151.5,62.96c0-0.23-0.04-0.45-0.12-0.65c-0.08-0.2-0.21-0.38-0.38-0.53
	c-0.18-0.15-0.42-0.26-0.72-0.35c-0.3-0.08-0.67-0.12-1.11-0.12c-0.44,0-0.81,0.04-1.11,0.13c-0.3,0.09-0.54,0.21-0.73,0.36
	c-0.19,0.15-0.32,0.32-0.4,0.52c-0.08,0.2-0.12,0.41-0.12,0.63c0,0.24,0.04,0.47,0.11,0.67c0.07,0.2,0.2,0.38,0.38,0.53
	c0.18,0.15,0.42,0.26,0.71,0.35c0.3,0.08,0.67,0.12,1.12,0.12c0.45,0,0.82-0.04,1.12-0.13c0.3-0.09,0.55-0.21,0.73-0.36
	c0.19-0.15,0.32-0.33,0.4-0.53C151.46,63.4,151.5,63.18,151.5,62.96L151.5,62.96z"/>
<path class="st3" d="M162.53,64.96c0,0.02-0.01,0.03-0.02,0.04c-0.02,0.01-0.04,0.02-0.09,0.03c-0.04,0.01-0.09,0.01-0.16,0.02
	c-0.06,0.01-0.15,0.01-0.25,0.01c-0.09,0-0.17,0-0.24-0.01c-0.07-0.01-0.12-0.01-0.16-0.02c-0.04-0.01-0.07-0.02-0.08-0.03
	s-0.02-0.03-0.02-0.04v-3.61h-0.01l-2.7,3.63c-0.01,0.01-0.03,0.03-0.05,0.04c-0.02,0.01-0.05,0.02-0.09,0.03
	c-0.04,0.01-0.09,0.01-0.15,0.02c-0.06,0-0.13,0-0.2,0c-0.08,0-0.15,0-0.21-0.01c-0.06,0-0.11-0.01-0.15-0.02
	c-0.04-0.01-0.07-0.02-0.09-0.03s-0.04-0.02-0.04-0.04l-2.58-3.63h-0.01v3.61c0,0.02-0.01,0.03-0.02,0.04s-0.04,0.02-0.09,0.03
	c-0.04,0.01-0.09,0.01-0.16,0.02c-0.07,0.01-0.15,0.01-0.25,0.01c-0.1,0-0.18,0-0.24-0.01c-0.07-0.01-0.12-0.01-0.16-0.02
	c-0.04-0.01-0.07-0.02-0.08-0.03c-0.01-0.01-0.02-0.03-0.02-0.04v-3.81c0-0.09,0.04-0.15,0.13-0.19c0.09-0.04,0.19-0.06,0.29-0.06
	h0.63c0.13,0,0.24,0.01,0.34,0.02c0.1,0.01,0.18,0.03,0.25,0.06c0.07,0.03,0.13,0.06,0.18,0.11c0.05,0.04,0.09,0.09,0.13,0.15
	l2.19,3h0.03l2.28-2.99c0.04-0.06,0.09-0.12,0.14-0.16c0.05-0.04,0.11-0.08,0.17-0.11c0.06-0.03,0.13-0.05,0.21-0.06
	c0.08-0.01,0.16-0.02,0.26-0.02h0.66c0.06,0,0.12,0,0.17,0.01c0.05,0.01,0.1,0.02,0.14,0.04c0.04,0.02,0.07,0.05,0.09,0.08
	c0.02,0.03,0.04,0.07,0.04,0.11V64.96L162.53,64.96z"/>
<path class="st3" d="M172.03,62.11c0,0.21-0.06,0.39-0.19,0.56c-0.13,0.17-0.31,0.31-0.54,0.43c-0.24,0.12-0.52,0.21-0.87,0.27
	c-0.34,0.06-0.75,0.1-1.22,0.1h-0.87v1.49c0,0.02-0.01,0.03-0.03,0.04c-0.02,0.01-0.05,0.02-0.08,0.03
	c-0.04,0.01-0.09,0.01-0.15,0.02c-0.07,0.01-0.15,0.01-0.25,0.01s-0.18,0-0.25-0.01c-0.07-0.01-0.12-0.01-0.16-0.02
	c-0.04-0.01-0.07-0.02-0.08-0.03c-0.02-0.01-0.02-0.03-0.02-0.04v-3.82c0-0.09,0.04-0.15,0.12-0.18c0.08-0.04,0.18-0.05,0.28-0.05
	h1.64c0.17,0,0.33,0,0.48,0.01c0.15,0.01,0.33,0.02,0.54,0.05c0.21,0.02,0.42,0.07,0.63,0.14c0.22,0.07,0.4,0.15,0.55,0.25
	c0.15,0.1,0.27,0.21,0.35,0.34C171.99,61.81,172.03,61.95,172.03,62.11L172.03,62.11z M170.95,62.15c0-0.17-0.06-0.31-0.17-0.42
	c-0.12-0.11-0.26-0.2-0.43-0.25c-0.17-0.06-0.35-0.09-0.53-0.11c-0.18-0.01-0.36-0.02-0.54-0.02h-0.94v1.66h0.92
	c0.31,0,0.56-0.02,0.77-0.06c0.2-0.04,0.37-0.1,0.51-0.18c0.14-0.08,0.24-0.17,0.31-0.27C170.92,62.39,170.95,62.28,170.95,62.15
	L170.95,62.15z"/>
<path class="st3" d="M178.43,64.84c0.03,0.05,0.05,0.08,0.05,0.11c0,0.03-0.01,0.05-0.04,0.07c-0.03,0.01-0.08,0.02-0.16,0.03
	s-0.17,0.01-0.29,0.01c-0.12,0-0.22,0-0.29,0c-0.07,0-0.13-0.01-0.17-0.02c-0.04-0.01-0.07-0.02-0.08-0.03
	c-0.02-0.01-0.03-0.03-0.05-0.05l-0.66-1.01h-3.19l-0.63,1c-0.01,0.02-0.03,0.04-0.05,0.05c-0.02,0.01-0.05,0.03-0.09,0.04
	c-0.04,0.01-0.09,0.02-0.16,0.02s-0.16,0.01-0.27,0.01c-0.11,0-0.21,0-0.28-0.01c-0.07-0.01-0.12-0.02-0.15-0.03
	c-0.03-0.01-0.04-0.04-0.04-0.07s0.02-0.07,0.05-0.11l2.57-3.85c0.02-0.02,0.04-0.04,0.06-0.06c0.03-0.01,0.06-0.03,0.11-0.04
	c0.05-0.01,0.11-0.01,0.19-0.02s0.17,0,0.29,0c0.13,0,0.23,0,0.31,0c0.08,0,0.15,0.01,0.2,0.02c0.05,0.01,0.09,0.02,0.12,0.04
	c0.03,0.02,0.05,0.04,0.07,0.06L178.43,64.84L178.43,64.84z M175.13,61.45L175.13,61.45l-1.33,2.07h2.67L175.13,61.45L175.13,61.45z
	"/>
<path class="st3" d="M180.73,64.96c0,0.02-0.01,0.03-0.02,0.04c-0.02,0.01-0.04,0.02-0.08,0.03c-0.04,0.01-0.09,0.01-0.16,0.02
	c-0.07,0.01-0.15,0.01-0.25,0.01c-0.09,0-0.18,0-0.24-0.01c-0.07-0.01-0.12-0.01-0.16-0.02c-0.04-0.01-0.07-0.02-0.08-0.03
	s-0.02-0.03-0.02-0.04v-3.98c0-0.02,0.01-0.03,0.03-0.04c0.02-0.01,0.05-0.02,0.09-0.03c0.04-0.01,0.09-0.01,0.16-0.02
	c0.07-0.01,0.14-0.01,0.23-0.01c0.1,0,0.18,0,0.25,0.01c0.07,0.01,0.12,0.01,0.16,0.02c0.04,0.01,0.07,0.02,0.08,0.03
	c0.02,0.01,0.02,0.03,0.02,0.04V64.96L180.73,64.96z"/>
<path class="st3" d="M188.57,64.81c0,0.04-0.01,0.08-0.04,0.11c-0.03,0.03-0.06,0.05-0.1,0.07c-0.04,0.02-0.09,0.03-0.14,0.04
	c-0.05,0.01-0.11,0.01-0.16,0.01h-0.34c-0.11,0-0.2-0.01-0.28-0.02c-0.08-0.01-0.16-0.03-0.23-0.06c-0.07-0.03-0.14-0.07-0.21-0.13
	c-0.07-0.05-0.15-0.12-0.23-0.2l-2.34-2.36c-0.12-0.12-0.25-0.25-0.37-0.38c-0.12-0.13-0.24-0.26-0.35-0.39h-0.01
	c0.01,0.15,0.01,0.31,0.02,0.47s0.01,0.32,0.01,0.48v2.5c0,0.01-0.01,0.03-0.02,0.04c-0.02,0.01-0.04,0.02-0.08,0.03
	c-0.04,0.01-0.09,0.01-0.16,0.02c-0.06,0.01-0.15,0.01-0.25,0.01c-0.1,0-0.18,0-0.25-0.01c-0.06-0.01-0.12-0.01-0.15-0.02
	c-0.04-0.01-0.06-0.02-0.08-0.03c-0.02-0.01-0.03-0.03-0.03-0.04v-3.82c0-0.09,0.04-0.15,0.13-0.18c0.09-0.04,0.19-0.05,0.29-0.05
	h0.5c0.12,0,0.22,0.01,0.3,0.02c0.08,0.01,0.15,0.03,0.21,0.05c0.06,0.02,0.12,0.06,0.18,0.1c0.06,0.04,0.12,0.1,0.19,0.16l1.8,1.82
	c0.11,0.11,0.22,0.22,0.32,0.33c0.1,0.11,0.2,0.21,0.3,0.31c0.1,0.1,0.19,0.2,0.28,0.3c0.09,0.1,0.19,0.2,0.28,0.3h0.01
	c-0.01-0.17-0.01-0.34-0.01-0.53c0-0.18,0-0.36,0-0.53v-2.25c0-0.01,0.01-0.03,0.03-0.04c0.02-0.01,0.04-0.02,0.08-0.03
	c0.04-0.01,0.09-0.02,0.16-0.02c0.06,0,0.15-0.01,0.25-0.01c0.09,0,0.17,0,0.24,0.01c0.07,0,0.12,0.01,0.16,0.02
	c0.04,0.01,0.06,0.02,0.08,0.03c0.02,0.01,0.02,0.03,0.02,0.04V64.81L188.57,64.81z"/>
<path class="st3" d="M195.41,61.13c0,0.04,0,0.08-0.01,0.11c-0.01,0.03-0.02,0.05-0.04,0.07c-0.02,0.02-0.04,0.03-0.07,0.04
	c-0.03,0.01-0.05,0.01-0.09,0.01h-2.16v3.59c0,0.02-0.01,0.03-0.02,0.04c-0.02,0.01-0.04,0.02-0.08,0.03
	c-0.04,0.01-0.09,0.01-0.16,0.02c-0.07,0.01-0.15,0.01-0.25,0.01c-0.09,0-0.18,0-0.24-0.01c-0.07-0.01-0.12-0.01-0.16-0.02
	c-0.04-0.01-0.07-0.02-0.08-0.03c-0.02-0.01-0.02-0.03-0.02-0.04v-3.59h-2.16c-0.03,0-0.06,0-0.09-0.01
	c-0.03-0.01-0.05-0.02-0.06-0.04c-0.02-0.02-0.03-0.04-0.04-0.07c-0.01-0.03-0.01-0.07-0.01-0.11c0-0.04,0-0.08,0.01-0.11
	c0.01-0.03,0.02-0.06,0.04-0.08c0.02-0.02,0.04-0.03,0.06-0.04c0.03-0.01,0.05-0.01,0.09-0.01h5.33c0.03,0,0.06,0,0.09,0.01
	c0.03,0.01,0.05,0.02,0.07,0.04c0.02,0.02,0.03,0.04,0.04,0.08C195.41,61.06,195.41,61.09,195.41,61.13L195.41,61.13z"/>
<path class="st3" d="M197.54,64.96c0,0.02-0.01,0.03-0.02,0.04c-0.02,0.01-0.04,0.02-0.08,0.03c-0.04,0.01-0.09,0.01-0.16,0.02
	c-0.07,0.01-0.15,0.01-0.25,0.01c-0.09,0-0.18,0-0.24-0.01c-0.07-0.01-0.12-0.01-0.16-0.02c-0.04-0.01-0.07-0.02-0.08-0.03
	c-0.02-0.01-0.02-0.03-0.02-0.04v-3.98c0-0.02,0.01-0.03,0.03-0.04c0.02-0.01,0.05-0.02,0.09-0.03c0.04-0.01,0.09-0.01,0.16-0.02
	c0.07-0.01,0.14-0.01,0.23-0.01c0.1,0,0.18,0,0.25,0.01c0.07,0.01,0.12,0.01,0.16,0.02c0.04,0.01,0.07,0.02,0.08,0.03
	c0.02,0.01,0.02,0.03,0.02,0.04V64.96L197.54,64.96z"/>
<path class="st3" d="M205.38,64.81c0,0.04-0.01,0.08-0.04,0.11c-0.03,0.03-0.06,0.05-0.1,0.07c-0.04,0.02-0.09,0.03-0.14,0.04
	c-0.05,0.01-0.11,0.01-0.16,0.01h-0.34c-0.11,0-0.2-0.01-0.28-0.02c-0.08-0.01-0.16-0.03-0.23-0.06c-0.07-0.03-0.14-0.07-0.21-0.13
	s-0.15-0.12-0.23-0.2l-2.34-2.36c-0.12-0.12-0.25-0.25-0.37-0.38c-0.12-0.13-0.24-0.26-0.35-0.39h-0.01
	c0.01,0.15,0.01,0.31,0.02,0.47c0,0.16,0.01,0.32,0.01,0.48v2.5c0,0.01-0.01,0.03-0.02,0.04c-0.02,0.01-0.04,0.02-0.08,0.03
	c-0.04,0.01-0.09,0.01-0.16,0.02c-0.06,0.01-0.15,0.01-0.25,0.01s-0.18,0-0.25-0.01c-0.06-0.01-0.12-0.01-0.15-0.02
	c-0.04-0.01-0.06-0.02-0.08-0.03c-0.02-0.01-0.02-0.03-0.02-0.04v-3.82c0-0.09,0.04-0.15,0.13-0.18c0.09-0.04,0.19-0.05,0.29-0.05
	h0.5c0.12,0,0.22,0.01,0.3,0.02c0.08,0.01,0.15,0.03,0.21,0.05c0.06,0.02,0.12,0.06,0.18,0.1c0.06,0.04,0.12,0.1,0.19,0.16l1.8,1.82
	c0.11,0.11,0.22,0.22,0.32,0.33c0.1,0.11,0.2,0.21,0.3,0.31c0.1,0.1,0.19,0.2,0.28,0.3c0.09,0.1,0.19,0.2,0.28,0.3h0.01
	c-0.01-0.17-0.01-0.34-0.01-0.53c0-0.18,0-0.36,0-0.53v-2.25c0-0.01,0.01-0.03,0.02-0.04c0.02-0.01,0.04-0.02,0.08-0.03
	c0.04-0.01,0.09-0.02,0.16-0.02c0.06,0,0.15-0.01,0.25-0.01c0.09,0,0.17,0,0.24,0.01c0.07,0,0.12,0.01,0.16,0.02
	c0.04,0.01,0.06,0.02,0.08,0.03c0.02,0.01,0.03,0.03,0.03,0.04V64.81L205.38,64.81z"/>
<path class="st3" d="M213.18,61.46c0,0.04,0,0.08-0.01,0.11s-0.02,0.06-0.04,0.08c-0.02,0.02-0.04,0.03-0.06,0.04
	c-0.02,0.01-0.05,0.01-0.08,0.01c-0.05,0-0.13-0.02-0.24-0.06c-0.11-0.04-0.26-0.09-0.44-0.13c-0.19-0.05-0.41-0.09-0.67-0.13
	c-0.26-0.04-0.57-0.06-0.92-0.06c-0.42,0-0.8,0.04-1.14,0.12c-0.34,0.08-0.62,0.2-0.85,0.35c-0.23,0.15-0.41,0.32-0.54,0.53
	c-0.12,0.2-0.19,0.42-0.19,0.66c0,0.26,0.07,0.5,0.2,0.7c0.14,0.2,0.32,0.38,0.57,0.52s0.53,0.25,0.86,0.32
	c0.33,0.07,0.7,0.11,1.1,0.11c0.24,0,0.48-0.02,0.72-0.05c0.24-0.03,0.47-0.08,0.68-0.14v-1.21h-1.78c-0.07,0-0.12-0.02-0.15-0.05
	c-0.03-0.04-0.05-0.09-0.05-0.17c0-0.04,0-0.08,0.01-0.1c0.01-0.03,0.02-0.05,0.04-0.07c0.02-0.02,0.04-0.03,0.06-0.04
	c0.02-0.01,0.05-0.01,0.09-0.01h2.44c0.04,0,0.09,0,0.13,0.01c0.04,0.01,0.08,0.02,0.12,0.04s0.06,0.04,0.08,0.07
	c0.02,0.03,0.03,0.06,0.03,0.1v1.58c0,0.06-0.02,0.1-0.05,0.14c-0.04,0.04-0.11,0.08-0.23,0.11c-0.11,0.03-0.26,0.06-0.44,0.1
	c-0.18,0.04-0.37,0.07-0.56,0.09c-0.19,0.03-0.39,0.04-0.59,0.06c-0.2,0.01-0.39,0.02-0.59,0.02c-0.59,0-1.12-0.05-1.59-0.15
	c-0.47-0.1-0.86-0.24-1.18-0.42c-0.32-0.18-0.57-0.4-0.74-0.66c-0.17-0.26-0.25-0.54-0.25-0.86c0-0.33,0.09-0.63,0.28-0.89
	c0.18-0.27,0.44-0.49,0.78-0.68c0.33-0.19,0.73-0.33,1.2-0.44c0.47-0.1,0.99-0.16,1.56-0.16c0.29,0,0.57,0.01,0.82,0.04
	c0.26,0.03,0.49,0.06,0.68,0.1c0.2,0.04,0.37,0.08,0.5,0.12c0.14,0.04,0.23,0.08,0.28,0.11c0.05,0.03,0.09,0.06,0.11,0.1
	C213.17,61.34,213.18,61.39,213.18,61.46L213.18,61.46z"/>
<polygon class="st2" points="115.64,60.11 113.75,63.14 115.64,66.17 117.53,63.14 115.64,60.11 "/>
</svg>
