<?xml version="1.0" encoding="utf-8"?>
<!-- Generator: Adobe Illustrator 23.0.0, SVG Export Plug-In . SVG Version: 6.00 Build 0)  -->
<svg version="1.1" id="Layer_1" xmlns="http://www.w3.org/2000/svg" xmlns:xlink="http://www.w3.org/1999/xlink" x="0px" y="0px"
	 viewBox="0 0 250 150" style="enable-background:new 0 0 250 150;" xml:space="preserve">
<style type="text/css">
	.st0{fill-rule:evenodd;clip-rule:evenodd;fill:#C3C5C7;}
	.st1{fill-rule:evenodd;clip-rule:evenodd;fill:#38D430;}
	.st2{fill-rule:evenodd;clip-rule:evenodd;fill:#FFFFFF;}
</style>
<path class="st0" d="M10.2,82.8l-0.2,0l0,39.8c3.3-5.7,7.6-9.8,13.8-13.2C15.9,103.5,11.5,92.4,10.2,82.8 M10.1,70.3
	c4.1-12,7.8-17,14.9-24.8c-6.5-3.3-11.1-8.7-15-14.4L10.1,70.3z M3,118.5c2.5-49.1,23.8-69.7,50.2-68.9c-3.6-5.6,1.9-13.9,13.1-16.8
	C33.3,32.6,1.7,59.5,3,118.5 M15.6,73.7c-8.7,12.5,2.7,32.1,19.9,42c9.3,4.9,18.3,6.9,28.7,6.3c-9.9-3.5-16.3-8.4-19.2-15
	c-2.6,0-4.8-0.2-7.3-0.8C21.4,102.7,10,86.2,15.6,73.7"/>
<path class="st1" d="M10.2,78.9l-0.2,0l0,39.8c3.3-5.7,7.6-9.8,13.8-13.2C15.9,99.6,11.5,88.5,10.2,78.9 M10.1,66.4
	c4.1-12,7.8-17,14.9-24.8c-6.5-3.3-11.1-8.7-15-14.4L10.1,66.4z M3,114.6c2.5-49.1,23.8-69.7,50.2-68.9c-3.6-5.6,1.9-13.9,13.1-16.8
	C33.3,28.7,1.7,55.7,3,114.6 M15.6,69.8c-8.7,12.5,2.7,32.1,19.9,42c9.3,4.9,18.3,6.9,28.7,6.3c-9.9-3.5-16.3-8.4-19.2-15
	c-2.6,0-4.8-0.2-7.3-0.8C21.4,98.8,10,82.3,15.6,69.8"/>
<path class="st0" d="M71.4,62.8h2.4l-0.6,6.8L69.8,70c-0.6-1.6-1.1-2.6-1.6-3.1c-0.8-0.9-2.1-1.5-3.8-2.1C62.7,64.3,60.5,64,58,64
	c-3,0-6,0.3-9,1.1c-3,0.7-5.8,1.7-8.3,3.1C38,69.5,36.2,71,35,72.7c-1.2,1.7-1.6,3.3-1,4.7c0.6,1.4,2,2.4,4.2,3.2
	c2.2,0.7,4.8,1.1,8,1.1c3,0,6.2-0.4,9.9-1.1c3.6-0.7,7-1.8,10.2-3.1l2.1,0.8c-2,0.9-4,1.7-6.1,2.3c-3.2,1-6.4,1.7-9.5,2.2
	c-3.1,0.5-6.2,0.7-9.5,0.7c-7.2,0-12.2-1.2-15.1-3.5c-2.4-1.9-2.6-4.2-0.7-6.9c1.4-2,3.7-3.7,6.9-5.3s7-2.9,11.3-3.8
	s8.6-1.4,12.8-1.4c2.2,0,4.2,0.1,6,0.4c1.7,0.3,3.4,0.7,4.9,1.3L71.4,62.8z M78.2,62.8h17.4l-0.9,1.2h-2c-1.2,0-2,0.1-2.4,0.2
	c-0.4,0.1-0.7,0.3-0.9,0.5c-0.1,0.2-0.1,0.5,0.1,0.8c0.1,0.1,0.1,0.2,0.2,0.3l3.8,7.3l15.5-7.6c0.6-0.3,1-0.5,1.2-0.6
	c0.2-0.1,0.2-0.2,0.3-0.3c0.1-0.1,0.1-0.2,0-0.3s-0.3-0.2-0.6-0.2c-0.2,0-0.8,0-1.8,0h-1.7l0.9-1.2h14.4l-0.9,1.2
	c-1.3,0-2.2,0-2.9,0.1s-1.2,0.2-1.8,0.4c-0.5,0.2-1.3,0.5-2.4,1l-19.2,9.1l-3.6,5.1c-0.5,0.8-0.7,1.2-0.6,1.4c0.1,0.2,0.4,0.4,1,0.5
	s1.9,0.2,4.1,0.2l-0.9,1.2H76.2l0.9-1.2h1.4c1.5,0,2.5-0.1,3.1-0.2c0.6-0.1,1.1-0.3,1.6-0.6c0.3-0.2,0.8-0.6,1.3-1.3l3.3-4.6
	l-5.5-9.5c-0.4-0.8-0.9-1.2-1.5-1.4c-0.6-0.2-1.7-0.2-3.5-0.3L78.2,62.8z M157.4,62.8h2.4l-0.6,6.8l-3.4,0.4
	c-0.6-1.6-1.1-2.6-1.6-3.1c-0.8-0.9-2.1-1.5-3.9-2.1c-1.8-0.5-3.9-0.8-6.5-0.8c-3,0-6,0.3-9,1.1c-3,0.7-5.8,1.7-8.3,3.1
	c-2.5,1.4-4.4,2.9-5.6,4.6c-1.2,1.7-1.6,3.3-0.9,4.7c0.6,1.4,2,2.4,4.2,3.2c2.2,0.7,4.8,1.1,8,1.1c3,0,6.2-0.4,9.9-1.1
	s7-1.8,10.2-3.1l2.1,0.8c-2,0.9-4,1.7-6.1,2.3c-3.2,1-6.4,1.7-9.5,2.2c-3.1,0.5-6.2,0.7-9.5,0.7c-7.2,0-12.2-1.2-15.1-3.5
	c-2.3-1.9-2.6-4.2-0.7-6.9c1.4-2,3.7-3.7,6.9-5.3c3.2-1.6,7-2.9,11.3-3.8c4.3-0.9,8.6-1.4,12.8-1.4c2.2,0,4.2,0.1,6,0.4
	c1.7,0.3,3.4,0.7,4.9,1.3L157.4,62.8z M168.5,62.8h18l-0.9,1.2H184c-1.3,0-2.2,0.1-2.9,0.2s-1.1,0.3-1.5,0.5s-0.8,0.6-1.1,1.1
	l-10.1,14.1c-0.5,0.7-0.7,1-0.7,1.2c0,0.2,0.2,0.3,0.6,0.4c0.3,0.1,1.1,0.1,2.6,0.1h2.5c2.9,0,5.5-0.2,7.9-0.5s4.6-0.9,6.6-1.6
	s4.2-1.7,6.6-3.1l2.7,0.4l-9.7,6.3H154l0.9-1.2h1.5c1.4,0,2.4-0.1,3-0.2c0.6-0.1,1.1-0.3,1.5-0.5c0.4-0.2,0.9-0.7,1.3-1.3l9.9-13.8
	c0.5-0.7,0.7-1.2,0.6-1.4c-0.1-0.2-0.3-0.4-0.7-0.5s-1.4-0.2-2.9-0.2h-1.5L168.5,62.8z M208.6,62.8h37.8l0.6,5.3l-3.3,0.5
	c-0.1-0.9-0.4-1.6-0.9-2.1s-1.2-0.9-2.2-1.3s-2-0.6-3.2-0.7c-1.1-0.1-3.3-0.2-6.6-0.2h-11.3l-5.3,7.4h5.6c2.1,0,3.8-0.2,5-0.5
	c1.3-0.3,2.3-0.7,3-1.1c0.6-0.3,1.1-0.9,1.7-1.8l0.2-0.3h3.3l-6.4,8.9h-3.3l0.6-0.8c0.5-0.7,0.7-1.2,0.7-1.5s-0.2-0.6-0.7-0.8
	s-1-0.4-1.6-0.5c-0.6-0.1-1.9-0.2-3.6-0.2h-5.6l-4.7,6.6c-0.5,0.7-0.7,1.1-0.7,1.2c0,0.2,0.2,0.3,0.5,0.3s1.2,0.1,2.7,0.1h7
	c3.9,0,7.1-0.2,9.6-0.6c2.5-0.4,4.9-1,7.1-1.9c1.8-0.7,3.7-1.6,5.8-2.8l2.7,0.5l-9.7,6.3h-39.2l0.9-1.2h1.3c1.6,0,2.6,0,3-0.1
	c0.7-0.1,1.3-0.3,1.8-0.6c0.4-0.2,0.8-0.6,1.2-1.3l10-14c0.4-0.6,0.6-1.1,0.5-1.3c-0.1-0.2-0.5-0.4-1.1-0.5
	c-0.3-0.1-1.6-0.1-3.9-0.1L208.6,62.8z"/>
<path class="st2" d="M111.5,94.1c0,0.1,0,0.1,0,0.1c0,0,0,0.1,0,0.1c0,0,0,0.1-0.1,0.1c0,0-0.1,0-0.1,0.1s-0.2,0.1-0.3,0.1
	s-0.4,0.1-0.6,0.2s-0.5,0.1-0.9,0.1s-0.7,0.1-1.1,0.1c-0.7,0-1.3-0.1-1.8-0.2s-1-0.3-1.4-0.5c-0.4-0.2-0.7-0.5-0.9-0.9
	c-0.2-0.3-0.3-0.7-0.3-1.2c0-0.5,0.1-0.9,0.3-1.2s0.5-0.7,0.9-0.9s0.9-0.4,1.4-0.6c0.6-0.1,1.2-0.2,1.8-0.2c0.3,0,0.6,0,0.9,0
	c0.3,0,0.5,0.1,0.8,0.1c0.2,0.1,0.4,0.1,0.6,0.2s0.3,0.1,0.4,0.2s0.1,0.1,0.1,0.1s0,0,0.1,0.1s0,0.1,0,0.1s0,0.1,0,0.1
	c0,0.1,0,0.1,0,0.1c0,0,0,0.1-0.1,0.1c0,0-0.1,0.1-0.1,0.1c0,0-0.1,0-0.1,0c-0.1,0-0.2,0-0.3-0.1c-0.1-0.1-0.3-0.1-0.5-0.2
	c-0.2-0.1-0.5-0.1-0.8-0.2c-0.3-0.1-0.7-0.1-1.1-0.1c-0.4,0-0.9,0.1-1.2,0.2c-0.4,0.1-0.7,0.2-0.9,0.4s-0.5,0.4-0.6,0.7
	c-0.2,0.3-0.2,0.6-0.2,0.9c0,0.3,0.1,0.7,0.2,0.9s0.3,0.5,0.6,0.7s0.6,0.3,1,0.4c0.4,0.1,0.8,0.1,1.3,0.1c0.4,0,0.8,0,1.1-0.1
	c0.3-0.1,0.6-0.1,0.8-0.2c0.2-0.1,0.4-0.1,0.5-0.2s0.2-0.1,0.3-0.1c0,0,0.1,0,0.1,0s0.1,0,0.1,0.1c0,0,0,0.1,0,0.1
	C111.5,93.9,111.5,94,111.5,94.1"/>
<path class="st2" d="M121,92.8c0,0.3-0.1,0.6-0.3,0.9c-0.2,0.3-0.4,0.5-0.8,0.7c-0.3,0.2-0.8,0.3-1.2,0.4c-0.5,0.1-1,0.1-1.7,0.1
	c-0.6,0-1.1,0-1.5-0.1c-0.5-0.1-0.9-0.2-1.2-0.4s-0.6-0.4-0.8-0.7c-0.2-0.3-0.3-0.6-0.3-0.9v-3.4c0,0,0,0,0-0.1s0.1,0,0.1,0
	s0.1,0,0.2,0c0.1,0,0.2,0,0.3,0c0.1,0,0.2,0,0.3,0s0.2,0,0.2,0c0.1,0,0.1,0,0.1,0c0,0,0,0,0,0.1v3.3c0,0.3,0.1,0.5,0.2,0.7
	c0.1,0.2,0.3,0.3,0.5,0.5c0.2,0.1,0.5,0.2,0.8,0.3s0.7,0.1,1,0.1c0.4,0,0.8,0,1.1-0.1c0.3-0.1,0.6-0.2,0.8-0.3
	c0.2-0.1,0.4-0.3,0.5-0.5c0.1-0.2,0.2-0.4,0.2-0.7v-3.4c0,0,0,0,0-0.1s0.1,0,0.1,0s0.1,0,0.2,0c0.1,0,0.2,0,0.3,0c0.1,0,0.2,0,0.3,0
	s0.2,0,0.2,0c0.1,0,0.1,0,0.1,0c0,0,0,0,0,0.1L121,92.8L121,92.8z"/>
<path class="st2" d="M129.1,93.3c0,0.3-0.1,0.5-0.3,0.7c-0.2,0.2-0.4,0.4-0.7,0.5s-0.7,0.2-1.1,0.3s-0.9,0.1-1.4,0.1
	c-0.3,0-0.7,0-0.9-0.1c-0.3,0-0.6-0.1-0.8-0.1c-0.2-0.1-0.4-0.1-0.6-0.1c-0.2-0.1-0.3-0.1-0.3-0.1c-0.1,0-0.1-0.1-0.1-0.1
	c0-0.1,0-0.1,0-0.2c0-0.1,0-0.1,0-0.2c0,0,0-0.1,0.1-0.1c0,0,0.1,0,0.1-0.1s0.1,0,0.1,0c0.1,0,0.2,0,0.3,0.1s0.3,0.1,0.5,0.2
	c0.2,0.1,0.5,0.1,0.8,0.2s0.6,0.1,1,0.1c0.3,0,0.6,0,0.8-0.1c0.2,0,0.4-0.1,0.6-0.2s0.3-0.2,0.4-0.3c0.1-0.1,0.1-0.2,0.1-0.4
	c0-0.2-0.1-0.3-0.2-0.4s-0.3-0.2-0.5-0.3c-0.2-0.1-0.5-0.2-0.7-0.2c-0.3-0.1-0.6-0.1-0.8-0.2s-0.6-0.2-0.8-0.2s-0.5-0.2-0.7-0.3
	c-0.2-0.1-0.4-0.3-0.5-0.4c-0.1-0.2-0.2-0.3-0.2-0.6s0.1-0.4,0.2-0.6s0.4-0.3,0.7-0.4c0.3-0.1,0.6-0.2,1-0.3s0.8-0.1,1.2-0.1
	c0.2,0,0.4,0,0.7,0s0.4,0.1,0.7,0.1c0.2,0,0.4,0.1,0.5,0.1s0.3,0.1,0.3,0.1s0.1,0.1,0.1,0.1c0,0,0,0,0,0.1s0,0.1,0,0.1
	c0,0,0,0.1,0,0.1c0,0.1,0,0.1,0,0.1s0,0.1,0,0.1c0,0,0,0.1-0.1,0.1c0,0-0.1,0-0.1,0c-0.1,0-0.1,0-0.3-0.1c-0.1,0-0.3-0.1-0.4-0.1
	c-0.2-0.1-0.4-0.1-0.6-0.1c-0.2,0-0.5-0.1-0.8-0.1c-0.3,0-0.5,0-0.7,0.1s-0.4,0.1-0.5,0.2c-0.1,0.1-0.2,0.2-0.3,0.2
	s-0.1,0.2-0.1,0.3c0,0.2,0.1,0.3,0.2,0.4c0.1,0.1,0.3,0.2,0.5,0.3s0.5,0.2,0.7,0.2c0.3,0.1,0.6,0.1,0.8,0.2c0.3,0.1,0.6,0.2,0.8,0.2
	s0.5,0.2,0.7,0.3c0.2,0.1,0.4,0.3,0.5,0.4C129.1,92.9,129.1,93.1,129.1,93.3"/>
<path class="st2" d="M137.4,89.6c0,0.1,0,0.1,0,0.1c0,0,0,0.1-0.1,0.1c0,0-0.1,0-0.1,0.1c0,0-0.1,0-0.1,0h-2.9v4.8c0,0,0,0,0,0.1
	s-0.1,0-0.1,0s-0.1,0-0.2,0c-0.1,0-0.2,0-0.3,0c-0.1,0-0.2,0-0.3,0c-0.1,0-0.2,0-0.2,0s-0.1,0-0.1,0c0,0,0,0,0-0.1v-4.8H130
	c0,0-0.1,0-0.1,0c0,0-0.1,0-0.1-0.1c0,0,0-0.1-0.1-0.1c0,0,0-0.1,0-0.1s0-0.1,0-0.1c0,0,0-0.1,0.1-0.1s0.1,0,0.1-0.1
	c0,0,0.1,0,0.1,0h7.1c0,0,0.1,0,0.1,0c0,0,0.1,0,0.1,0.1c0,0,0,0.1,0.1,0.1C137.4,89.5,137.4,89.6,137.4,89.6"/>
<path class="st2" d="M146.9,92c0,0.4-0.1,0.8-0.3,1.2c-0.2,0.4-0.5,0.7-0.9,0.9s-0.9,0.4-1.4,0.6c-0.6,0.1-1.3,0.2-2,0.2
	c-0.8,0-1.4-0.1-2-0.2c-0.6-0.1-1-0.3-1.4-0.5s-0.6-0.5-0.8-0.9c-0.2-0.3-0.3-0.8-0.3-1.2c0-0.4,0.1-0.8,0.3-1.2
	c0.2-0.4,0.5-0.7,0.9-0.9c0.4-0.2,0.9-0.4,1.5-0.6c0.6-0.1,1.3-0.2,2-0.2c0.8,0,1.4,0.1,2,0.2c0.6,0.1,1,0.3,1.4,0.5
	c0.4,0.2,0.6,0.5,0.8,0.9C146.8,91.2,146.9,91.6,146.9,92 M145.5,92.1c0-0.3-0.1-0.6-0.1-0.9c-0.1-0.3-0.3-0.5-0.5-0.7
	c-0.2-0.2-0.6-0.3-1-0.5c-0.4-0.1-0.9-0.2-1.5-0.2s-1.1,0.1-1.5,0.2s-0.7,0.3-1,0.5c-0.2,0.2-0.4,0.4-0.5,0.7
	c-0.1,0.3-0.2,0.5-0.2,0.8c0,0.3,0.1,0.6,0.1,0.9c0.1,0.3,0.3,0.5,0.5,0.7c0.2,0.2,0.6,0.3,0.9,0.5s0.9,0.2,1.5,0.2
	c0.6,0,1.1-0.1,1.5-0.2c0.4-0.1,0.7-0.3,1-0.5c0.2-0.2,0.4-0.4,0.5-0.7C145.4,92.6,145.5,92.4,145.5,92.1"/>
<path class="st2" d="M160.1,94.7C160.1,94.7,160.1,94.8,160.1,94.7c-0.1,0.1-0.1,0.1-0.1,0.1s-0.1,0-0.2,0c-0.1,0-0.2,0-0.3,0
	c-0.1,0-0.2,0-0.3,0c-0.1,0-0.2,0-0.2,0s-0.1,0-0.1,0c0,0,0,0,0-0.1v-4.8h0l-3.6,4.8c0,0,0,0-0.1,0.1c0,0-0.1,0-0.1,0s-0.1,0-0.2,0
	s-0.2,0-0.3,0c-0.1,0-0.2,0-0.3,0s-0.1,0-0.2,0c-0.1,0-0.1,0-0.1,0c0,0-0.1,0-0.1-0.1l-3.4-4.8h0v4.8c0,0,0,0,0,0.1s-0.1,0-0.1,0
	s-0.1,0-0.2,0c-0.1,0-0.2,0-0.3,0s-0.2,0-0.3,0c-0.1,0-0.2,0-0.2,0s-0.1,0-0.1,0c0,0,0,0,0-0.1v-5.1c0-0.1,0.1-0.2,0.2-0.3
	c0.1-0.1,0.2-0.1,0.4-0.1h0.8c0.2,0,0.3,0,0.4,0c0.1,0,0.2,0,0.3,0.1c0.1,0,0.2,0.1,0.2,0.1c0.1,0.1,0.1,0.1,0.2,0.2l2.9,4h0l3-4
	c0.1-0.1,0.1-0.2,0.2-0.2s0.1-0.1,0.2-0.1c0.1,0,0.2-0.1,0.3-0.1c0.1,0,0.2,0,0.4,0h0.9c0.1,0,0.2,0,0.2,0c0.1,0,0.1,0,0.2,0.1
	c0.1,0,0.1,0.1,0.1,0.1s0.1,0.1,0.1,0.2L160.1,94.7L160.1,94.7z"/>
<path class="st2" d="M172.8,90.9c0,0.3-0.1,0.5-0.2,0.7s-0.4,0.4-0.7,0.6c-0.3,0.2-0.7,0.3-1.1,0.4s-1,0.1-1.6,0.1h-1.2v2
	c0,0,0,0,0,0.1c0,0-0.1,0-0.1,0s-0.1,0-0.2,0c-0.1,0-0.2,0-0.3,0s-0.2,0-0.3,0s-0.2,0-0.2,0s-0.1,0-0.1,0s0,0,0-0.1v-5.1
	c0-0.1,0.1-0.2,0.2-0.2c0.1-0.1,0.2-0.1,0.4-0.1h2.2c0.2,0,0.4,0,0.6,0c0.2,0,0.4,0,0.7,0.1s0.6,0.1,0.8,0.2
	c0.3,0.1,0.5,0.2,0.7,0.3c0.2,0.1,0.4,0.3,0.5,0.4C172.7,90.5,172.8,90.7,172.8,90.9 M171.4,91c0-0.2-0.1-0.4-0.2-0.6
	c-0.1-0.2-0.4-0.3-0.6-0.3c-0.2-0.1-0.5-0.1-0.7-0.1s-0.5,0-0.7,0h-1.2v2.2h1.2c0.4,0,0.8,0,1-0.1c0.3-0.1,0.5-0.1,0.7-0.2
	s0.3-0.2,0.4-0.4C171.3,91.3,171.4,91.2,171.4,91"/>
<path class="st2" d="M181.3,94.6c0,0.1,0.1,0.1,0.1,0.2c0,0,0,0.1-0.1,0.1s-0.1,0-0.2,0s-0.2,0-0.4,0s-0.3,0-0.4,0
	c-0.1,0-0.2,0-0.2,0c-0.1,0-0.1,0-0.1,0c0,0-0.1,0-0.1-0.1l-0.9-1.3h-4.2l-0.8,1.3c0,0,0,0.1-0.1,0.1c0,0-0.1,0-0.1,0.1
	c-0.1,0-0.1,0-0.2,0c-0.1,0-0.2,0-0.4,0s-0.3,0-0.4,0c-0.1,0-0.2,0-0.2,0c0,0-0.1-0.1-0.1-0.1c0,0,0-0.1,0.1-0.2l3.4-5.1
	c0,0,0.1-0.1,0.1-0.1c0,0,0.1,0,0.1-0.1c0.1,0,0.1,0,0.2,0s0.2,0,0.4,0c0.2,0,0.3,0,0.4,0c0.1,0,0.2,0,0.3,0c0.1,0,0.1,0,0.2,0.1
	c0,0,0.1,0.1,0.1,0.1L181.3,94.6z M176.9,90.1L176.9,90.1l-1.8,2.8h3.6L176.9,90.1z"/>
<path class="st2" d="M184.4,94.7C184.4,94.7,184.3,94.8,184.4,94.7c-0.1,0.1-0.1,0.1-0.1,0.1s-0.1,0-0.2,0c-0.1,0-0.2,0-0.3,0
	s-0.2,0-0.3,0c-0.1,0-0.2,0-0.2,0s-0.1,0-0.1,0c0,0,0,0,0-0.1v-5.3c0,0,0,0,0-0.1c0,0,0.1,0,0.1,0s0.1,0,0.2,0c0.1,0,0.2,0,0.3,0
	c0.1,0,0.2,0,0.3,0s0.2,0,0.2,0s0.1,0,0.1,0c0,0,0,0,0,0.1L184.4,94.7L184.4,94.7z"/>
<path class="st2" d="M194.8,94.5c0,0.1,0,0.1-0.1,0.2c0,0-0.1,0.1-0.1,0.1s-0.1,0-0.2,0.1c-0.1,0-0.1,0-0.2,0h-0.4
	c-0.1,0-0.3,0-0.4,0c-0.1,0-0.2,0-0.3-0.1c-0.1,0-0.2-0.1-0.3-0.2c-0.1-0.1-0.2-0.2-0.3-0.3l-3.1-3.1c-0.2-0.2-0.3-0.3-0.5-0.5
	c-0.2-0.2-0.3-0.3-0.5-0.5h0c0,0.2,0,0.4,0,0.6c0,0.2,0,0.4,0,0.6v3.3c0,0,0,0,0,0.1s-0.1,0-0.1,0s-0.1,0-0.2,0c-0.1,0-0.2,0-0.3,0
	s-0.2,0-0.3,0s-0.1,0-0.2,0s-0.1,0-0.1,0c0,0,0,0,0-0.1v-5.1c0-0.1,0.1-0.2,0.2-0.2c0.1-0.1,0.2-0.1,0.4-0.1h0.7c0.2,0,0.3,0,0.4,0
	c0.1,0,0.2,0,0.3,0.1s0.2,0.1,0.2,0.1c0.1,0.1,0.2,0.1,0.2,0.2l2.4,2.4c0.1,0.2,0.3,0.3,0.4,0.4s0.3,0.3,0.4,0.4
	c0.1,0.1,0.2,0.3,0.4,0.4c0.1,0.1,0.2,0.3,0.4,0.4h0c0-0.2,0-0.5,0-0.7s0-0.5,0-0.7v-3c0,0,0,0,0-0.1s0.1,0,0.1,0s0.1,0,0.2,0
	c0.1,0,0.2,0,0.3,0c0.1,0,0.2,0,0.3,0c0.1,0,0.2,0,0.2,0s0.1,0,0.1,0c0,0,0,0,0,0.1L194.8,94.5L194.8,94.5z"/>
<path class="st2" d="M203.9,89.6c0,0.1,0,0.1,0,0.1c0,0,0,0.1-0.1,0.1c0,0-0.1,0-0.1,0.1c0,0-0.1,0-0.1,0h-2.9v4.8c0,0,0,0,0,0.1
	s-0.1,0-0.1,0s-0.1,0-0.2,0c-0.1,0-0.2,0-0.3,0c-0.1,0-0.2,0-0.3,0c-0.1,0-0.2,0-0.2,0s-0.1,0-0.1,0c0,0,0,0,0-0.1v-4.8h-2.9
	c0,0-0.1,0-0.1,0c0,0-0.1,0-0.1-0.1c0,0,0-0.1-0.1-0.1c0,0,0-0.1,0-0.1s0-0.1,0-0.1c0,0,0-0.1,0.1-0.1s0.1,0,0.1-0.1
	c0,0,0.1,0,0.1,0h7.1c0,0,0.1,0,0.1,0c0,0,0.1,0,0.1,0.1c0,0,0,0.1,0.1,0.1C203.9,89.5,203.9,89.6,203.9,89.6"/>
<path class="st2" d="M206.7,94.7C206.7,94.7,206.7,94.8,206.7,94.7c-0.1,0.1-0.1,0.1-0.1,0.1s-0.1,0-0.2,0c-0.1,0-0.2,0-0.3,0
	s-0.2,0-0.3,0c-0.1,0-0.2,0-0.2,0s-0.1,0-0.1,0c0,0,0,0,0-0.1v-5.3c0,0,0,0,0-0.1c0,0,0.1,0,0.1,0s0.1,0,0.2,0c0.1,0,0.2,0,0.3,0
	c0.1,0,0.2,0,0.3,0s0.2,0,0.2,0s0.1,0,0.1,0c0,0,0,0,0,0.1L206.7,94.7L206.7,94.7z"/>
<path class="st2" d="M217.1,94.5c0,0.1,0,0.1-0.1,0.2c0,0-0.1,0.1-0.1,0.1s-0.1,0-0.2,0.1c-0.1,0-0.1,0-0.2,0h-0.4
	c-0.1,0-0.3,0-0.4,0c-0.1,0-0.2,0-0.3-0.1c-0.1,0-0.2-0.1-0.3-0.2c-0.1-0.1-0.2-0.2-0.3-0.3l-3.1-3.1c-0.2-0.2-0.3-0.3-0.5-0.5
	c-0.2-0.2-0.3-0.3-0.5-0.5h0c0,0.2,0,0.4,0,0.6c0,0.2,0,0.4,0,0.6v3.3c0,0,0,0,0,0.1s-0.1,0-0.1,0s-0.1,0-0.2,0c-0.1,0-0.2,0-0.3,0
	s-0.2,0-0.3,0s-0.1,0-0.2,0s-0.1,0-0.1,0c0,0,0,0,0-0.1v-5.1c0-0.1,0.1-0.2,0.2-0.2c0.1-0.1,0.2-0.1,0.4-0.1h0.7c0.2,0,0.3,0,0.4,0
	c0.1,0,0.2,0,0.3,0.1s0.2,0.1,0.2,0.1c0.1,0.1,0.2,0.1,0.2,0.2l2.4,2.4c0.1,0.2,0.3,0.3,0.4,0.4s0.3,0.3,0.4,0.4
	c0.1,0.1,0.2,0.3,0.4,0.4c0.1,0.1,0.2,0.3,0.4,0.4h0c0-0.2,0-0.5,0-0.7s0-0.5,0-0.7v-3c0,0,0,0,0-0.1s0.1,0,0.1,0s0.1,0,0.2,0
	c0.1,0,0.2,0,0.3,0c0.1,0,0.2,0,0.3,0c0.1,0,0.2,0,0.2,0s0.1,0,0.1,0c0,0,0,0,0,0.1L217.1,94.5L217.1,94.5z"/>
<path class="st2" d="M227.5,90.1c0,0.1,0,0.1,0,0.1c0,0,0,0.1-0.1,0.1s-0.1,0.1-0.1,0.1c0,0-0.1,0-0.1,0c-0.1,0-0.2,0-0.3-0.1
	c-0.1-0.1-0.3-0.1-0.6-0.2s-0.5-0.1-0.9-0.2c-0.3-0.1-0.8-0.1-1.2-0.1c-0.6,0-1.1,0.1-1.5,0.2c-0.4,0.1-0.8,0.3-1.1,0.5
	s-0.6,0.4-0.7,0.7c-0.2,0.3-0.2,0.6-0.2,0.9c0,0.3,0.1,0.7,0.3,0.9c0.2,0.3,0.4,0.5,0.8,0.7s0.7,0.3,1.1,0.4
	c0.4,0.1,0.9,0.1,1.5,0.1c0.3,0,0.6,0,1-0.1c0.3,0,0.6-0.1,0.9-0.2v-1.6h-2.4c-0.1,0-0.2,0-0.2-0.1s-0.1-0.1-0.1-0.2
	c0-0.1,0-0.1,0-0.1c0,0,0-0.1,0.1-0.1s0.1,0,0.1-0.1s0.1,0,0.1,0h3.2c0.1,0,0.1,0,0.2,0c0.1,0,0.1,0,0.2,0.1c0.1,0,0.1,0.1,0.1,0.1
	c0,0,0,0.1,0,0.1v2.1c0,0.1,0,0.1-0.1,0.2s-0.1,0.1-0.3,0.1c-0.1,0-0.4,0.1-0.6,0.1c-0.2,0.1-0.5,0.1-0.8,0.1
	c-0.3,0-0.5,0.1-0.8,0.1c-0.3,0-0.5,0-0.8,0c-0.8,0-1.5-0.1-2.1-0.2s-1.1-0.3-1.6-0.6c-0.4-0.2-0.8-0.5-1-0.9s-0.3-0.7-0.3-1.1
	c0-0.4,0.1-0.8,0.4-1.2c0.2-0.3,0.6-0.7,1-0.9s1-0.4,1.6-0.6c0.6-0.1,1.3-0.2,2.1-0.2c0.4,0,0.8,0,1.1,0.1c0.3,0,0.6,0.1,0.9,0.1
	c0.3,0.1,0.5,0.1,0.7,0.2c0.2,0.1,0.3,0.1,0.4,0.1c0.1,0,0.1,0.1,0.1,0.1C227.5,89.9,227.5,90,227.5,90.1"/>
<polygon class="st1" points="97.8,88.3 95.3,92.3 97.8,96.3 100.3,92.3 "/>
</svg>
