<?xml version="1.0" encoding="utf-8"?>
<!-- Generator: Adobe Illustrator 23.0.0, SVG Export Plug-In . SVG Version: 6.00 Build 0)  -->
<svg version="1.1" id="Layer_1" xmlns="http://www.w3.org/2000/svg" xmlns:xlink="http://www.w3.org/1999/xlink" x="0px" y="0px"
	 viewBox="0 0 400 100" style="enable-background:new 0 0 400 100;" xml:space="preserve">
<style type="text/css">
	.st0{fill-rule:evenodd;clip-rule:evenodd;fill:#C3C5C7;}
	.st1{fill-rule:evenodd;clip-rule:evenodd;fill:#38D430;}
	.st2{fill-rule:evenodd;clip-rule:evenodd;fill:#FFFFFF;}
	.st3{fill:none;}
</style>
<path class="st0" d="M83.3,58l-0.2,0l0,40.5c3.3-5.8,7.7-10,14-13.4C89.1,79,84.6,67.7,83.3,58 M83.2,45.3C87.4,33,91,28,98.3,20.1
	c-6.6-3.3-11.3-8.9-15.2-14.6L83.2,45.3z M76,94.2c2.5-49.9,24.2-70.9,51.1-70c-3.7-5.7,2-14.1,13.3-17C106.8,6.8,74.6,34.3,76,94.2
	 M88.7,48.7c-8.9,12.8,2.7,32.6,20.2,42.7c9.4,5,18.6,7,29.2,6.4c-10.1-3.6-16.6-8.6-19.6-15.2c-2.7,0-4.9-0.2-7.5-0.8
	C94.6,78.1,83,61.4,88.7,48.7"/>
<path class="st1" d="M83.3,54l-0.2,0l0,40.5c3.3-5.8,7.7-10,14-13.4C89.1,75.1,84.6,63.8,83.3,54 M83.2,41.3
	C87.4,29.1,91,24,98.3,16.1c-6.6-3.3-11.3-8.9-15.2-14.6L83.2,41.3z M76,90.2c2.5-49.9,24.2-70.9,51.1-70c-3.7-5.7,2-14.1,13.3-17
	C106.8,2.9,74.6,30.3,76,90.2 M88.7,44.7c-8.9,12.8,2.7,32.6,20.2,42.7c9.4,5,18.6,7,29.2,6.4c-10.1-3.6-16.6-8.6-19.6-15.2
	c-2.7,0-4.9-0.2-7.5-0.8C94.6,74.2,83,57.5,88.7,44.7"/>
<path class="st0" d="M145.5,37.6h2.4l-0.6,6.9l-3.4,0.4c-0.6-1.6-1.1-2.7-1.6-3.2c-0.8-0.9-2.1-1.6-3.9-2.1s-4-0.8-6.6-0.8
	c-3.1,0-6.1,0.4-9.2,1.1c-3.1,0.7-5.9,1.8-8.5,3.1c-2.6,1.4-4.5,2.9-5.7,4.7c-1.3,1.8-1.6,3.4-1,4.8c0.6,1.4,2,2.5,4.3,3.2
	c2.2,0.8,4.9,1.1,8.1,1.1c3,0,6.3-0.4,10-1.1c3.7-0.8,7.1-1.8,10.4-3.2l2.1,0.8c-2.1,0.9-4.1,1.7-6.2,2.3c-3.3,1-6.5,1.8-9.6,2.2
	c-3.1,0.5-6.3,0.7-9.7,0.7c-7.3,0-12.5-1.2-15.3-3.6c-2.4-2-2.6-4.3-0.7-7c1.4-2,3.8-3.8,7-5.4s7.1-2.9,11.5-3.9
	c4.4-1,8.7-1.4,13-1.4c2.3,0,4.3,0.1,6.1,0.4s3.4,0.7,5,1.3L145.5,37.6z M152.4,37.6h17.7l-0.9,1.2h-2c-1.2,0-2,0-2.5,0.2
	c-0.4,0.1-0.7,0.3-0.9,0.5c-0.1,0.2-0.1,0.5,0.1,0.8c0.1,0.1,0.1,0.2,0.2,0.3l3.9,7.4l15.7-7.7c0.6-0.3,1-0.5,1.2-0.6
	s0.3-0.2,0.3-0.3c0.1-0.1,0.1-0.3,0-0.3s-0.3-0.2-0.6-0.2c-0.2,0-0.8,0-1.9,0h-1.8l0.9-1.2h14.6l-0.9,1.2c-1.3,0-2.3,0-2.9,0.1
	c-0.7,0.1-1.3,0.2-1.8,0.4c-0.5,0.2-1.3,0.5-2.4,1L169,49.7l-3.7,5.2c-0.5,0.8-0.8,1.2-0.6,1.5s0.4,0.4,1,0.5
	c0.5,0.1,1.9,0.2,4.2,0.2l-0.9,1.2h-18.5l0.9-1.2h1.4c1.5,0,2.6-0.1,3.2-0.2s1.1-0.3,1.6-0.6c0.3-0.2,0.8-0.6,1.3-1.4l3.3-4.6
	l-5.6-9.7c-0.4-0.8-0.9-1.2-1.5-1.4c-0.6-0.2-1.7-0.2-3.5-0.3L152.4,37.6z M232.9,37.6h2.4l-0.6,6.9l-3.4,0.4
	c-0.6-1.6-1.1-2.7-1.6-3.2c-0.8-0.9-2.1-1.6-3.9-2.1s-4-0.8-6.6-0.8c-3.1,0-6.1,0.4-9.2,1.1c-3.1,0.7-5.9,1.8-8.5,3.1
	s-4.5,2.9-5.7,4.7c-1.3,1.8-1.6,3.4-1,4.8s2,2.5,4.3,3.2c2.2,0.8,4.9,1.1,8.1,1.1c3,0,6.4-0.4,10-1.1s7.1-1.8,10.4-3.2l2.1,0.8
	c-2.1,0.9-4.1,1.7-6.2,2.3c-3.3,1-6.5,1.8-9.6,2.2c-3.1,0.5-6.4,0.7-9.7,0.7c-7.3,0-12.5-1.2-15.4-3.6c-2.4-2-2.6-4.3-0.7-7
	c1.4-2,3.8-3.8,7-5.4s7.1-2.9,11.5-3.9c4.4-1,8.7-1.4,13-1.4c2.3,0,4.3,0.1,6.1,0.4c1.8,0.3,3.4,0.7,5,1.3L232.9,37.6z M244.2,37.6
	h18.3l-0.9,1.2h-1.7c-1.3,0-2.3,0.1-2.9,0.2c-0.6,0.1-1.1,0.3-1.5,0.5s-0.8,0.6-1.2,1.1L244.1,55c-0.5,0.7-0.7,1-0.7,1.2
	c0,0.2,0.2,0.3,0.6,0.4c0.3,0.1,1.2,0.1,2.7,0.1h2.5c2.9,0,5.6-0.2,8-0.5s4.6-0.9,6.7-1.6s4.3-1.8,6.8-3.2l2.7,0.4l-9.9,6.5h-34
	l0.9-1.2h1.5c1.4,0,2.5,0,3-0.2c0.6-0.1,1.1-0.3,1.5-0.5s0.9-0.7,1.3-1.3l10-14c0.5-0.7,0.7-1.2,0.6-1.4c-0.1-0.2-0.3-0.4-0.7-0.5
	c-0.4-0.1-1.4-0.2-2.9-0.2h-1.5L244.2,37.6z M285.1,37.6h38.4l0.6,5.4l-3.3,0.5c-0.1-0.9-0.4-1.6-1-2.1c-0.5-0.5-1.3-0.9-2.2-1.3
	c-1-0.3-2.1-0.6-3.2-0.7s-3.4-0.2-6.7-0.2h-11.5l-5.4,7.5h5.7c2.1,0,3.8-0.2,5.1-0.5s2.3-0.7,3-1.2c0.6-0.3,1.1-1,1.8-1.8l0.2-0.3
	h3.3l-6.5,9h-3.3l0.6-0.8c0.5-0.7,0.7-1.2,0.7-1.5c0-0.3-0.2-0.6-0.7-0.9s-1-0.5-1.7-0.5c-0.7-0.1-1.9-0.2-3.6-0.2h-5.7L285,55
	c-0.5,0.7-0.7,1.1-0.7,1.3c0,0.2,0.2,0.3,0.5,0.3c0.3,0.1,1.2,0.1,2.7,0.1h7.1c4,0,7.2-0.2,9.7-0.6s4.9-1,7.2-1.9
	c1.8-0.7,3.8-1.6,5.9-2.8l2.8,0.5l-9.9,6.5h-39.9l0.9-1.2h1.4c1.6,0,2.6,0,3-0.1c0.7-0.1,1.3-0.3,1.8-0.6c0.4-0.2,0.8-0.6,1.2-1.3
	l10.1-14.2c0.5-0.7,0.6-1.1,0.5-1.3c-0.1-0.2-0.5-0.4-1.2-0.5c-0.3-0.1-1.6-0.1-4-0.1L285.1,37.6z"/>
<path class="st2" d="M186.3,69.4c0,0.1,0,0.1,0,0.1c0,0,0,0.1,0,0.1s0,0.1-0.1,0.1s-0.1,0-0.1,0.1s-0.2,0.1-0.3,0.1
	s-0.4,0.1-0.6,0.2c-0.2,0.1-0.5,0.1-0.9,0.1s-0.7,0.1-1.1,0.1c-0.7,0-1.3-0.1-1.8-0.2c-0.5-0.1-1-0.3-1.4-0.5
	c-0.4-0.2-0.7-0.5-0.9-0.9c-0.2-0.3-0.3-0.8-0.3-1.2c0-0.5,0.1-0.9,0.3-1.2s0.5-0.7,0.9-0.9s0.9-0.4,1.4-0.6
	c0.6-0.1,1.2-0.2,1.9-0.2c0.3,0,0.6,0,0.9,0.1c0.3,0,0.5,0.1,0.8,0.1c0.2,0.1,0.4,0.1,0.6,0.2c0.2,0.1,0.3,0.1,0.4,0.2
	c0.1,0,0.1,0.1,0.1,0.1s0,0,0.1,0.1c0,0,0,0.1,0,0.1s0,0.1,0,0.1c0,0.1,0,0.1,0,0.2c0,0,0,0.1-0.1,0.1s-0.1,0.1-0.1,0.1
	c0,0-0.1,0-0.1,0c-0.1,0-0.2,0-0.3-0.1s-0.3-0.1-0.5-0.2s-0.5-0.1-0.8-0.2c-0.3-0.1-0.7-0.1-1.1-0.1c-0.5,0-0.9,0.1-1.3,0.2
	c-0.4,0.1-0.7,0.2-1,0.4s-0.5,0.4-0.6,0.7c-0.1,0.3-0.2,0.6-0.2,0.9c0,0.4,0.1,0.7,0.2,0.9c0.1,0.3,0.4,0.5,0.6,0.7
	c0.3,0.2,0.6,0.3,1,0.4c0.4,0.1,0.8,0.1,1.3,0.1c0.4,0,0.8,0,1.1-0.1c0.3-0.1,0.6-0.1,0.8-0.2s0.4-0.1,0.5-0.2
	c0.1-0.1,0.2-0.1,0.3-0.1c0,0,0.1,0,0.1,0s0.1,0,0.1,0.1c0,0,0,0.1,0,0.1C186.3,69.2,186.3,69.3,186.3,69.4"/>
<path class="st2" d="M195.9,68.1c0,0.3-0.1,0.7-0.3,0.9c-0.2,0.3-0.4,0.5-0.8,0.7c-0.3,0.2-0.8,0.3-1.2,0.4s-1.1,0.1-1.7,0.1
	c-0.6,0-1.1-0.1-1.6-0.1c-0.5-0.1-0.9-0.2-1.2-0.4c-0.3-0.2-0.6-0.4-0.8-0.7c-0.2-0.3-0.3-0.6-0.3-0.9v-3.5c0,0,0,0,0-0.1
	s0.1,0,0.1,0s0.1,0,0.2,0c0.1,0,0.2,0,0.3,0c0.1,0,0.2,0,0.3,0s0.2,0,0.2,0s0.1,0,0.1,0c0,0,0,0,0,0.1V68c0,0.3,0.1,0.5,0.2,0.7
	s0.3,0.3,0.5,0.5c0.2,0.1,0.5,0.2,0.8,0.3c0.3,0.1,0.7,0.1,1.1,0.1c0.4,0,0.8,0,1.1-0.1c0.3-0.1,0.6-0.2,0.8-0.3
	c0.2-0.1,0.4-0.3,0.5-0.5c0.1-0.2,0.2-0.4,0.2-0.7v-3.4c0,0,0,0,0-0.1s0.1,0,0.1,0s0.1,0,0.2,0c0.1,0,0.2,0,0.3,0s0.2,0,0.3,0
	c0.1,0,0.2,0,0.2,0s0.1,0,0.1,0c0,0,0,0,0,0.1L195.9,68.1L195.9,68.1z"/>
<path class="st2" d="M204.2,68.6c0,0.3-0.1,0.5-0.3,0.7c-0.2,0.2-0.4,0.4-0.8,0.5s-0.7,0.2-1.1,0.3s-0.9,0.1-1.4,0.1
	c-0.4,0-0.7,0-1-0.1c-0.3,0-0.6-0.1-0.8-0.1s-0.4-0.1-0.6-0.1s-0.3-0.1-0.3-0.1c-0.1,0-0.1-0.1-0.1-0.1c0-0.1,0-0.1,0-0.2
	c0-0.1,0-0.1,0-0.2c0,0,0-0.1,0.1-0.1c0,0,0.1,0,0.1-0.1c0,0,0.1,0,0.1,0c0.1,0,0.2,0,0.3,0.1c0.1,0.1,0.3,0.1,0.5,0.2
	c0.2,0.1,0.5,0.1,0.8,0.2s0.6,0.1,1.1,0.1c0.3,0,0.6,0,0.8-0.1s0.5-0.1,0.6-0.2s0.3-0.2,0.4-0.3c0.1-0.1,0.1-0.2,0.1-0.4
	c0-0.2-0.1-0.3-0.2-0.4c-0.1-0.1-0.3-0.2-0.5-0.3c-0.2-0.1-0.5-0.2-0.8-0.2s-0.6-0.1-0.9-0.2c-0.3-0.1-0.6-0.2-0.9-0.2
	s-0.5-0.2-0.8-0.3s-0.4-0.3-0.5-0.4c-0.1-0.2-0.2-0.4-0.2-0.6c0-0.2,0.1-0.4,0.2-0.6c0.2-0.2,0.4-0.3,0.7-0.5s0.6-0.2,1-0.3
	s0.8-0.1,1.2-0.1c0.2,0,0.5,0,0.7,0s0.4,0.1,0.7,0.1c0.2,0,0.4,0.1,0.6,0.1c0.2,0.1,0.3,0.1,0.3,0.1s0.1,0.1,0.1,0.1c0,0,0,0,0,0.1
	s0,0.1,0,0.1c0,0,0,0.1,0,0.1c0,0.1,0,0.1,0,0.1s0,0.1,0,0.1c0,0,0,0.1-0.1,0.1c0,0-0.1,0-0.1,0c-0.1,0-0.1,0-0.3-0.1
	s-0.3-0.1-0.5-0.1c-0.2-0.1-0.4-0.1-0.6-0.1s-0.5-0.1-0.8-0.1c-0.3,0-0.5,0-0.8,0.1s-0.4,0.1-0.5,0.2s-0.2,0.2-0.3,0.2
	c-0.1,0.1-0.1,0.2-0.1,0.3c0,0.2,0.1,0.3,0.2,0.4c0.1,0.1,0.3,0.2,0.5,0.3c0.2,0.1,0.5,0.2,0.8,0.2c0.3,0.1,0.6,0.2,0.9,0.2
	c0.3,0.1,0.6,0.2,0.9,0.2c0.3,0.1,0.5,0.2,0.8,0.3c0.2,0.1,0.4,0.3,0.5,0.4C204.1,68.2,204.2,68.4,204.2,68.6"/>
<path class="st2" d="M212.6,64.9c0,0.1,0,0.1,0,0.1c0,0,0,0.1-0.1,0.1s-0.1,0-0.1,0.1c0,0-0.1,0-0.1,0h-2.9v4.9c0,0,0,0,0,0.1
	s-0.1,0-0.1,0s-0.1,0-0.2,0c-0.1,0-0.2,0-0.3,0s-0.2,0-0.3,0s-0.2,0-0.2,0c-0.1,0-0.1,0-0.1,0c0,0,0,0,0-0.1v-4.9h-2.9
	c0,0-0.1,0-0.1,0c0,0-0.1,0-0.1-0.1c0,0,0-0.1-0.1-0.1c0,0,0-0.1,0-0.1c0-0.1,0-0.1,0-0.2s0-0.1,0.1-0.1c0,0,0.1-0.1,0.1-0.1
	c0,0,0.1,0,0.1,0h7.2c0,0,0.1,0,0.1,0c0,0,0.1,0,0.1,0.1c0,0,0,0.1,0.1,0.1C212.6,64.8,212.6,64.8,212.6,64.9"/>
<path class="st2" d="M222.3,67.3c0,0.4-0.1,0.9-0.3,1.2c-0.2,0.4-0.5,0.7-0.9,0.9c-0.4,0.3-0.9,0.4-1.5,0.6s-1.3,0.2-2.1,0.2
	c-0.8,0-1.4-0.1-2-0.2c-0.6-0.1-1-0.3-1.4-0.6c-0.4-0.2-0.6-0.5-0.8-0.9c-0.2-0.4-0.3-0.8-0.3-1.2c0-0.4,0.1-0.8,0.3-1.2
	s0.5-0.7,0.9-0.9s0.9-0.4,1.5-0.6c0.6-0.1,1.3-0.2,2.1-0.2c0.8,0,1.4,0.1,2,0.2c0.6,0.1,1,0.3,1.4,0.5c0.4,0.2,0.7,0.5,0.8,0.9
	C222.2,66.4,222.3,66.8,222.3,67.3 M220.8,67.3c0-0.3-0.1-0.6-0.2-0.9c-0.1-0.3-0.3-0.5-0.5-0.7s-0.6-0.4-1-0.5
	c-0.4-0.1-0.9-0.2-1.5-0.2s-1.1,0.1-1.5,0.2c-0.4,0.1-0.7,0.3-1,0.5c-0.2,0.2-0.4,0.4-0.5,0.7s-0.2,0.6-0.2,0.8
	c0,0.3,0.1,0.6,0.1,0.9c0.1,0.3,0.3,0.5,0.5,0.7c0.2,0.2,0.6,0.4,1,0.5c0.4,0.1,0.9,0.2,1.5,0.2c0.6,0,1.1-0.1,1.5-0.2
	s0.7-0.3,1-0.5c0.2-0.2,0.4-0.4,0.5-0.7C220.8,67.9,220.8,67.7,220.8,67.3"/>
<path class="st2" d="M235.8,70.1C235.8,70.1,235.7,70.1,235.8,70.1c-0.1,0.1-0.1,0.1-0.1,0.1s-0.1,0-0.2,0c-0.1,0-0.2,0-0.3,0
	s-0.2,0-0.3,0c-0.1,0-0.2,0-0.2,0s-0.1,0-0.1,0c0,0,0,0,0-0.1v-4.9h0l-3.6,4.9c0,0,0,0-0.1,0.1c0,0-0.1,0-0.1,0s-0.1,0-0.2,0
	s-0.2,0-0.3,0s-0.2,0-0.3,0c-0.1,0-0.1,0-0.2,0c-0.1,0-0.1,0-0.1,0c0,0-0.1,0-0.1-0.1l-3.5-4.9h0v4.9c0,0,0,0,0,0.1s-0.1,0-0.1,0
	s-0.1,0-0.2,0c-0.1,0-0.2,0-0.3,0c-0.1,0-0.2,0-0.3,0s-0.2,0-0.2,0s-0.1,0-0.1,0c0,0,0,0,0-0.1v-5.2c0-0.1,0.1-0.2,0.2-0.3
	s0.2-0.1,0.4-0.1h0.9c0.2,0,0.3,0,0.5,0s0.2,0,0.3,0.1c0.1,0,0.2,0.1,0.2,0.1c0.1,0.1,0.1,0.1,0.2,0.2l3,4.1h0l3.1-4
	c0.1-0.1,0.1-0.2,0.2-0.2s0.1-0.1,0.2-0.2s0.2-0.1,0.3-0.1c0.1,0,0.2,0,0.4,0h0.9c0.1,0,0.2,0,0.2,0c0.1,0,0.1,0,0.2,0.1
	s0.1,0.1,0.1,0.1c0,0,0.1,0.1,0.1,0.2L235.8,70.1L235.8,70.1z"/>
<path class="st2" d="M248.6,66.2c0,0.3-0.1,0.5-0.3,0.8s-0.4,0.4-0.7,0.6c-0.3,0.2-0.7,0.3-1.2,0.4c-0.5,0.1-1,0.1-1.7,0.1h-1.2v2
	c0,0,0,0,0,0.1c0,0-0.1,0-0.1,0s-0.1,0-0.2,0c-0.1,0-0.2,0-0.3,0s-0.2,0-0.3,0s-0.2,0-0.2,0s-0.1,0-0.1,0c0,0,0,0,0-0.1v-5.2
	c0-0.1,0.1-0.2,0.2-0.2s0.2-0.1,0.4-0.1h2.2c0.2,0,0.4,0,0.6,0c0.2,0,0.4,0,0.7,0.1s0.6,0.1,0.9,0.2c0.3,0.1,0.5,0.2,0.7,0.3
	c0.2,0.1,0.4,0.3,0.5,0.5C248.5,65.8,248.6,66,248.6,66.2 M247.1,66.3c0-0.2-0.1-0.4-0.2-0.6s-0.4-0.3-0.6-0.3s-0.5-0.1-0.7-0.1
	s-0.5,0-0.7,0h-1.3v2.2h1.2c0.4,0,0.8,0,1-0.1s0.5-0.1,0.7-0.2s0.3-0.2,0.4-0.4C247.1,66.6,247.1,66.4,247.1,66.3"/>
<path class="st2" d="M257.2,69.9c0,0.1,0.1,0.1,0.1,0.2s0,0.1-0.1,0.1s-0.1,0-0.2,0s-0.2,0-0.4,0c-0.2,0-0.3,0-0.4,0
	c-0.1,0-0.2,0-0.2,0c-0.1,0-0.1,0-0.1,0c0,0-0.1,0-0.1-0.1l-0.9-1.4h-4.3l-0.9,1.3c0,0,0,0.1-0.1,0.1c0,0-0.1,0-0.1,0.1
	c-0.1,0-0.1,0-0.2,0c-0.1,0-0.2,0-0.4,0c-0.2,0-0.3,0-0.4,0s-0.2,0-0.2,0c0,0-0.1-0.1-0.1-0.1c0,0,0-0.1,0.1-0.2l3.5-5.2
	c0,0,0.1-0.1,0.1-0.1c0,0,0.1,0,0.1-0.1c0.1,0,0.1,0,0.3,0s0.2,0,0.4,0c0.2,0,0.3,0,0.4,0s0.2,0,0.3,0c0.1,0,0.1,0,0.2,0.1
	c0,0,0.1,0.1,0.1,0.1L257.2,69.9z M252.8,65.3L252.8,65.3l-1.8,2.8h3.6L252.8,65.3z"/>
<path class="st2" d="M260.4,70.1C260.4,70.1,260.3,70.1,260.4,70.1c0,0.1-0.1,0.1-0.1,0.1s-0.1,0-0.2,0s-0.2,0-0.3,0
	c-0.1,0-0.2,0-0.3,0s-0.2,0-0.2,0c0,0-0.1,0-0.1,0c0,0,0,0,0-0.1v-5.4c0,0,0,0,0-0.1c0,0,0.1,0,0.1,0s0.1,0,0.2,0s0.2,0,0.3,0
	s0.2,0,0.3,0s0.2,0,0.2,0s0.1,0,0.1,0c0,0,0,0,0,0.1L260.4,70.1L260.4,70.1z"/>
<path class="st2" d="M271,69.9c0,0.1,0,0.1,0,0.2c0,0-0.1,0.1-0.1,0.1c-0.1,0-0.1,0.1-0.2,0.1c-0.1,0-0.1,0-0.2,0h-0.5
	c-0.1,0-0.3,0-0.4,0c-0.1,0-0.2,0-0.3-0.1s-0.2-0.1-0.3-0.2s-0.2-0.2-0.3-0.3l-3.2-3.2c-0.2-0.2-0.3-0.3-0.5-0.5s-0.3-0.4-0.5-0.5h0
	c0,0.2,0,0.4,0,0.6c0,0.2,0,0.4,0,0.7v3.4c0,0,0,0,0,0.1s-0.1,0-0.1,0s-0.1,0-0.2,0s-0.2,0-0.3,0s-0.2,0-0.3,0c-0.1,0-0.2,0-0.2,0
	s-0.1,0-0.1,0c0,0,0,0,0-0.1v-5.2c0-0.1,0.1-0.2,0.2-0.2s0.2-0.1,0.4-0.1h0.7c0.2,0,0.3,0,0.4,0c0.1,0,0.2,0,0.3,0.1
	s0.2,0.1,0.2,0.1s0.2,0.1,0.2,0.2l2.4,2.5c0.1,0.2,0.3,0.3,0.4,0.4c0.1,0.1,0.3,0.3,0.4,0.4s0.3,0.3,0.4,0.4
	c0.1,0.1,0.2,0.3,0.4,0.4h0c0-0.2,0-0.5,0-0.7c0-0.2,0-0.5,0-0.7v-3c0,0,0,0,0-0.1s0.1,0,0.1-0.1c0,0,0.1,0,0.2,0s0.2,0,0.3,0
	c0.1,0,0.2,0,0.3,0s0.2,0,0.2,0s0.1,0,0.1,0.1c0,0,0,0,0,0.1L271,69.9L271,69.9z"/>
<path class="st2" d="M280.2,64.9c0,0.1,0,0.1,0,0.1c0,0,0,0.1,0,0.1s0,0-0.1,0.1c0,0-0.1,0-0.1,0H277v4.9c0,0,0,0,0,0.1
	s-0.1,0-0.1,0s-0.1,0-0.2,0c-0.1,0-0.2,0-0.3,0c-0.1,0-0.2,0-0.3,0s-0.2,0-0.2,0c0,0-0.1,0-0.1,0c0,0,0,0,0-0.1v-4.9h-2.9
	c0,0-0.1,0-0.1,0c0,0-0.1,0-0.1-0.1c0,0,0-0.1,0-0.1c0,0,0-0.1,0-0.1c0-0.1,0-0.1,0-0.2c0,0,0-0.1,0-0.1c0,0,0-0.1,0.1-0.1
	c0,0,0.1,0,0.1,0h7.2c0,0,0.1,0,0.1,0c0,0,0.1,0,0.1,0.1c0,0,0,0.1,0,0.1C280.2,64.8,280.2,64.8,280.2,64.9"/>
<path class="st2" d="M283.1,70.1C283.1,70.1,283.1,70.1,283.1,70.1c0,0.1-0.1,0.1-0.1,0.1s-0.1,0-0.2,0s-0.2,0-0.3,0
	c-0.1,0-0.2,0-0.3,0s-0.2,0-0.2,0c0,0-0.1,0-0.1,0c0,0,0,0,0-0.1v-5.4c0,0,0,0,0-0.1c0,0,0.1,0,0.1,0s0.1,0,0.2,0s0.2,0,0.3,0
	s0.2,0,0.3,0s0.2,0,0.2,0s0.1,0,0.1,0c0,0,0,0,0,0.1L283.1,70.1L283.1,70.1z"/>
<path class="st2" d="M293.7,69.9c0,0.1,0,0.1,0,0.2c0,0-0.1,0.1-0.1,0.1c-0.1,0-0.1,0.1-0.2,0.1c-0.1,0-0.1,0-0.2,0h-0.5
	c-0.1,0-0.3,0-0.4,0c-0.1,0-0.2,0-0.3-0.1c-0.1,0-0.2-0.1-0.3-0.2s-0.2-0.2-0.3-0.3l-3.2-3.2c-0.2-0.2-0.3-0.3-0.5-0.5
	s-0.3-0.4-0.5-0.5h0c0,0.2,0,0.4,0,0.6c0,0.2,0,0.4,0,0.7v3.4c0,0,0,0,0,0.1s-0.1,0-0.1,0s-0.1,0-0.2,0s-0.2,0-0.3,0s-0.2,0-0.3,0
	c-0.1,0-0.2,0-0.2,0s-0.1,0-0.1,0c0,0,0,0,0-0.1v-5.2c0-0.1,0.1-0.2,0.2-0.2s0.2-0.1,0.4-0.1h0.7c0.2,0,0.3,0,0.4,0
	c0.1,0,0.2,0,0.3,0.1s0.2,0.1,0.2,0.1s0.2,0.1,0.2,0.2l2.4,2.5c0.1,0.2,0.3,0.3,0.4,0.4c0.1,0.1,0.3,0.3,0.4,0.4s0.3,0.3,0.4,0.4
	c0.1,0.1,0.2,0.3,0.4,0.4h0c0-0.2,0-0.5,0-0.7c0-0.2,0-0.5,0-0.7v-3c0,0,0,0,0-0.1s0.1,0,0.1-0.1c0,0,0.1,0,0.2,0s0.2,0,0.3,0
	c0.1,0,0.2,0,0.3,0s0.2,0,0.2,0s0.1,0,0.1,0.1c0,0,0,0,0,0.1L293.7,69.9L293.7,69.9z"/>
<path class="st2" d="M304.2,65.3c0,0.1,0,0.1,0,0.2c0,0,0,0.1,0,0.1c0,0,0,0.1-0.1,0.1c0,0-0.1,0-0.1,0c-0.1,0-0.2,0-0.3-0.1
	s-0.4-0.1-0.6-0.2c-0.2-0.1-0.5-0.1-0.9-0.2s-0.8-0.1-1.2-0.1c-0.6,0-1.1,0.1-1.5,0.2c-0.5,0.1-0.8,0.3-1.1,0.5
	c-0.3,0.2-0.6,0.4-0.7,0.7c-0.2,0.3-0.2,0.6-0.2,0.9c0,0.4,0.1,0.7,0.3,0.9c0.2,0.3,0.4,0.5,0.8,0.7c0.3,0.2,0.7,0.3,1.2,0.4
	c0.5,0.1,1,0.2,1.5,0.2c0.3,0,0.6,0,1-0.1c0.3,0,0.6-0.1,0.9-0.2v-1.6h-2.4c-0.1,0-0.2,0-0.2-0.1c0-0.1-0.1-0.1-0.1-0.2
	c0-0.1,0-0.1,0-0.1c0,0,0-0.1,0-0.1c0,0,0,0,0.1-0.1c0,0,0.1,0,0.1,0h3.3c0.1,0,0.1,0,0.2,0c0.1,0,0.1,0,0.2,0.1
	c0,0,0.1,0.1,0.1,0.1c0,0,0,0.1,0,0.1v2.1c0,0.1,0,0.1-0.1,0.2c0,0.1-0.1,0.1-0.3,0.2c-0.2,0-0.4,0.1-0.6,0.1
	c-0.2,0.1-0.5,0.1-0.8,0.1s-0.5,0.1-0.8,0.1c-0.3,0-0.5,0-0.8,0c-0.8,0-1.5-0.1-2.1-0.2s-1.2-0.3-1.6-0.6c-0.4-0.2-0.8-0.6-1-0.9
	c-0.2-0.3-0.3-0.7-0.3-1.2c0-0.4,0.1-0.8,0.4-1.2s0.6-0.7,1-0.9c0.5-0.2,1-0.4,1.6-0.6c0.6-0.1,1.3-0.2,2.1-0.2c0.4,0,0.8,0,1.1,0.1
	c0.4,0,0.7,0.1,0.9,0.1c0.3,0.1,0.5,0.1,0.7,0.2c0.2,0.1,0.3,0.1,0.4,0.2s0.1,0.1,0.1,0.1C304.2,65.2,304.2,65.2,304.2,65.3"/>
<polygon class="st1" points="172.3,63.5 169.8,67.6 172.3,71.7 174.9,67.6 "/>
<rect class="st3" width="400" height="100"/>
</svg>
