<?xml version="1.0" encoding="utf-8"?>
<!-- Generator: Adobe Illustrator 23.0.0, SVG Export Plug-In . SVG Version: 6.00 Build 0)  -->
<svg version="1.1" id="Layer_1" xmlns="http://www.w3.org/2000/svg" xmlns:xlink="http://www.w3.org/1999/xlink" x="0px" y="0px"
	 viewBox="0 0 32 32" style="enable-background:new 0 0 32 32;" xml:space="preserve">
<style type="text/css">
	.st0{fill-rule:evenodd;clip-rule:evenodd;fill:#38D430;}
</style>
<path class="st0" d="M7.46,18.06l-0.06,0L7.41,32c1.14-1.99,2.66-3.45,4.82-4.61C9.44,25.3,7.89,21.42,7.46,18.06 M7.41,13.69
	c1.45-4.21,2.71-5.95,5.23-8.66C10.35,3.89,8.76,1.98,7.4,0L7.41,13.69z M4.94,30.53C5.81,13.35,13.26,6.14,22.51,6.44
	c-1.26-1.95,0.68-4.85,4.57-5.86C15.54,0.48,4.46,9.91,4.94,30.53 M9.33,14.87c-3.05,4.39,0.94,11.22,6.96,14.7
	c3.24,1.71,6.39,2.41,10.05,2.21c-3.47-1.22-5.7-2.96-6.73-5.23c-0.91,0-1.69-0.09-2.57-0.28C11.35,25,7.36,19.25,9.33,14.87"/>
</svg>
