<?xml version="1.0" encoding="utf-8"?>
<!-- Generator: Adobe Illustrator 23.0.0, SVG Export Plug-In . SVG Version: 6.00 Build 0)  -->
<svg version="1.1" id="Layer_1" xmlns="http://www.w3.org/2000/svg" xmlns:xlink="http://www.w3.org/1999/xlink" x="0px" y="0px"
	 viewBox="0 0 250 150" style="enable-background:new 0 0 250 150;" xml:space="preserve">
<style type="text/css">
	.st0{fill-rule:evenodd;clip-rule:evenodd;fill:#C3C5C7;}
	.st1{fill-rule:evenodd;clip-rule:evenodd;fill:#96C93F;}
	.st2{fill-rule:evenodd;clip-rule:evenodd;fill:#FFFFFF;}
</style>
<path class="st0" d="M10.25,82.85l-0.17,0.01l0.02,39.83c3.27-5.7,7.61-9.85,13.78-13.19C15.91,103.54,11.48,92.44,10.25,82.85
	 M10.1,70.34c4.15-12.04,7.75-17.02,14.94-24.76c-6.53-3.26-11.08-8.71-14.98-14.37L10.1,70.34z M3.04,118.48
	c2.49-49.11,23.79-69.72,50.21-68.86c-3.59-5.57,1.94-13.87,13.06-16.76C33.34,32.57,1.66,59.55,3.04,118.48 M15.58,73.71
	c-8.71,12.54,2.68,32.07,19.9,42.03c9.26,4.89,18.28,6.88,28.73,6.32c-9.91-3.49-16.3-8.45-19.25-14.96
	c-2.61-0.01-4.82-0.25-7.35-0.81C21.35,102.67,9.96,86.25,15.58,73.71"/>
<path class="st1" d="M10.25,78.95l-0.17,0.01l0.02,39.83c3.27-5.7,7.61-9.85,13.78-13.19C15.91,99.64,11.48,88.54,10.25,78.95
	 M10.1,66.44c4.15-12.04,7.75-17.02,14.94-24.76c-6.53-3.26-11.08-8.71-14.98-14.37L10.1,66.44z M3.04,114.58
	c2.49-49.11,23.79-69.72,50.21-68.86c-3.59-5.57,1.94-13.87,13.06-16.76C33.34,28.67,1.66,55.65,3.04,114.58 M15.58,69.81
	c-8.71,12.54,2.68,32.07,19.9,42.03c9.26,4.89,18.28,6.88,28.73,6.32c-9.91-3.49-16.3-8.45-19.25-14.96
	c-2.61-0.01-4.82-0.25-7.35-0.81C21.35,98.77,9.96,82.35,15.58,69.81"/>
<path class="st0" d="M71.42,62.85h2.4l-0.6,6.75l-3.37,0.38c-0.55-1.56-1.07-2.61-1.56-3.14c-0.81-0.86-2.09-1.54-3.85-2.05
	c-1.76-0.5-3.92-0.76-6.48-0.76c-3,0-6.01,0.35-9.04,1.05c-3.02,0.7-5.8,1.73-8.34,3.09c-2.54,1.36-4.41,2.88-5.62,4.58
	c-1.25,1.74-1.56,3.3-0.95,4.67c0.61,1.37,2.01,2.42,4.19,3.15c2.19,0.74,4.84,1.11,7.98,1.11c2.96,0,6.24-0.37,9.86-1.11
	c3.62-0.74,7.03-1.77,10.25-3.11l2.1,0.8c-2.01,0.89-4.04,1.65-6.09,2.27c-3.25,1-6.41,1.73-9.48,2.21
	c-3.07,0.47-6.24,0.71-9.51,0.71c-7.22,0-12.25-1.17-15.1-3.5c-2.35-1.94-2.57-4.24-0.66-6.92c1.4-1.97,3.71-3.74,6.91-5.34
	s6.96-2.86,11.26-3.8c4.3-0.94,8.56-1.41,12.76-1.41c2.24,0,4.23,0.13,5.96,0.4c1.73,0.27,3.38,0.69,4.93,1.28L71.42,62.85z
	 M78.15,62.85h17.4l-0.87,1.22h-1.97c-1.2,0-2.01,0.05-2.42,0.15c-0.41,0.1-0.7,0.26-0.86,0.48c-0.14,0.2-0.12,0.46,0.07,0.79
	c0.06,0.08,0.12,0.19,0.19,0.34l3.84,7.32l15.46-7.6c0.62-0.31,1.01-0.52,1.15-0.61c0.15-0.09,0.25-0.19,0.32-0.29
	c0.1-0.14,0.1-0.25,0-0.34c-0.1-0.09-0.31-0.16-0.63-0.21c-0.21-0.02-0.82-0.03-1.85-0.03h-1.73l0.87-1.22h14.38l-0.87,1.22
	c-1.26-0.01-2.22,0.02-2.89,0.1c-0.67,0.08-1.25,0.2-1.76,0.36c-0.5,0.16-1.3,0.5-2.38,1.02L94.45,74.7l-3.64,5.1
	c-0.53,0.75-0.74,1.23-0.62,1.45c0.12,0.22,0.44,0.39,0.97,0.49c0.53,0.1,1.89,0.15,4.09,0.15l-0.87,1.22H76.21l0.87-1.22h1.4
	c1.49,0,2.52-0.06,3.11-0.17c0.58-0.12,1.11-0.31,1.59-0.57c0.33-0.18,0.75-0.63,1.27-1.35l3.26-4.56l-5.5-9.53
	c-0.43-0.77-0.91-1.23-1.46-1.39c-0.55-0.15-1.7-0.24-3.47-0.26L78.15,62.85z M157.39,62.85h2.4l-0.6,6.75l-3.37,0.38
	c-0.55-1.56-1.07-2.61-1.56-3.14c-0.81-0.86-2.09-1.54-3.85-2.05c-1.76-0.5-3.92-0.76-6.48-0.76c-3,0-6.01,0.35-9.04,1.05
	c-3.02,0.7-5.8,1.73-8.34,3.09c-2.54,1.36-4.41,2.88-5.62,4.58c-1.25,1.74-1.56,3.3-0.95,4.67c0.61,1.37,2.01,2.42,4.2,3.15
	c2.18,0.74,4.84,1.11,7.98,1.11c2.96,0,6.24-0.37,9.86-1.11c3.62-0.74,7.03-1.77,10.25-3.11l2.1,0.8c-2.01,0.89-4.04,1.65-6.09,2.27
	c-3.25,1-6.41,1.73-9.48,2.21c-3.07,0.47-6.24,0.71-9.51,0.71c-7.22,0-12.25-1.17-15.1-3.5c-2.35-1.94-2.57-4.24-0.66-6.92
	c1.4-1.97,3.71-3.74,6.91-5.34c3.21-1.59,6.96-2.86,11.26-3.8c4.3-0.94,8.56-1.41,12.76-1.41c2.24,0,4.23,0.13,5.96,0.4
	c1.73,0.27,3.38,0.69,4.93,1.28L157.39,62.85z M168.46,62.85h18.03l-0.87,1.22h-1.67c-1.29,0-2.24,0.05-2.85,0.16
	c-0.61,0.11-1.11,0.26-1.5,0.47c-0.39,0.21-0.77,0.57-1.15,1.1l-10.1,14.13c-0.46,0.65-0.69,1.04-0.66,1.16
	c0.01,0.17,0.21,0.3,0.6,0.38c0.27,0.06,1.15,0.09,2.64,0.09h2.5c2.87,0,5.49-0.18,7.86-0.54c2.37-0.36,4.57-0.89,6.6-1.58
	c2.03-0.69,4.24-1.73,6.65-3.1l2.66,0.44l-9.74,6.35h-33.46l0.87-1.22h1.47c1.42,0,2.42-0.05,2.98-0.16
	c0.57-0.11,1.07-0.28,1.51-0.53c0.44-0.25,0.88-0.67,1.31-1.27l9.85-13.79c0.5-0.7,0.72-1.17,0.64-1.41
	c-0.07-0.24-0.31-0.41-0.7-0.51c-0.39-0.1-1.35-0.15-2.86-0.15h-1.47L168.46,62.85z M208.64,62.85h37.8l0.56,5.33l-3.28,0.48
	c-0.11-0.87-0.42-1.56-0.93-2.06c-0.51-0.5-1.25-0.92-2.21-1.27c-0.96-0.35-2.02-0.58-3.17-0.7c-1.15-0.12-3.34-0.17-6.57-0.17
	h-11.28l-5.3,7.42h5.62c2.07,0,3.75-0.15,5.02-0.46c1.28-0.31,2.28-0.69,3-1.14c0.55-0.34,1.13-0.93,1.73-1.77l0.24-0.33h3.27
	l-6.35,8.89h-3.27l0.55-0.77c0.48-0.68,0.72-1.17,0.7-1.47c-0.02-0.3-0.25-0.58-0.68-0.85c-0.43-0.27-0.98-0.45-1.63-0.54
	c-0.65-0.1-1.85-0.15-3.59-0.15h-5.62l-4.7,6.58c-0.49,0.69-0.72,1.11-0.68,1.25c0.04,0.15,0.2,0.26,0.48,0.33
	c0.28,0.07,1.17,0.1,2.66,0.1h6.98c3.89,0,7.08-0.2,9.57-0.61c2.48-0.41,4.86-1.03,7.12-1.87c1.78-0.66,3.7-1.58,5.75-2.78l2.7,0.47
	l-9.74,6.35h-39.23l0.87-1.22h1.33c1.56,0,2.55-0.04,2.99-0.13c0.67-0.13,1.26-0.33,1.77-0.61c0.36-0.19,0.77-0.61,1.23-1.26
	l9.98-13.96c0.45-0.63,0.61-1.06,0.48-1.27c-0.14-0.22-0.52-0.38-1.14-0.5c-0.33-0.07-1.63-0.1-3.89-0.1L208.64,62.85z"/>
<path class="st2" d="M111.51,94.05c0,0.05,0,0.09-0.01,0.12c-0.01,0.03-0.02,0.06-0.03,0.09c-0.01,0.02-0.03,0.05-0.05,0.07
	c-0.02,0.02-0.06,0.04-0.11,0.07c-0.05,0.03-0.16,0.07-0.33,0.13c-0.17,0.06-0.38,0.11-0.63,0.17c-0.25,0.06-0.54,0.1-0.86,0.14
	c-0.32,0.04-0.68,0.06-1.06,0.06c-0.66,0-1.26-0.06-1.79-0.18c-0.53-0.12-0.99-0.29-1.36-0.53c-0.38-0.23-0.66-0.52-0.87-0.86
	c-0.2-0.34-0.3-0.74-0.3-1.18c0-0.46,0.11-0.86,0.33-1.22c0.22-0.36,0.52-0.66,0.92-0.91s0.87-0.44,1.41-0.57
	c0.55-0.13,1.16-0.2,1.82-0.2c0.29,0,0.58,0.02,0.86,0.04c0.28,0.03,0.54,0.07,0.77,0.11c0.24,0.05,0.45,0.1,0.63,0.16
	s0.31,0.11,0.38,0.15c0.07,0.04,0.12,0.07,0.14,0.09c0.02,0.02,0.04,0.04,0.05,0.07c0.01,0.03,0.02,0.06,0.03,0.1
	c0.01,0.04,0.01,0.08,0.01,0.13c0,0.06-0.01,0.11-0.02,0.14c-0.01,0.04-0.03,0.07-0.05,0.1c-0.02,0.03-0.05,0.05-0.08,0.06
	c-0.03,0.01-0.06,0.02-0.11,0.02c-0.07,0-0.18-0.03-0.31-0.08c-0.13-0.06-0.3-0.12-0.51-0.18c-0.21-0.07-0.46-0.13-0.76-0.18
	c-0.3-0.06-0.66-0.08-1.07-0.08c-0.45,0-0.87,0.05-1.24,0.15c-0.37,0.1-0.69,0.24-0.95,0.43s-0.47,0.42-0.61,0.7
	c-0.15,0.27-0.22,0.59-0.22,0.94c0,0.35,0.07,0.66,0.21,0.93c0.14,0.27,0.34,0.49,0.6,0.67c0.26,0.18,0.58,0.32,0.96,0.41
	c0.38,0.09,0.81,0.14,1.29,0.14c0.41,0,0.76-0.03,1.07-0.08c0.3-0.05,0.56-0.11,0.78-0.18c0.21-0.07,0.39-0.13,0.53-0.18
	c0.14-0.05,0.25-0.08,0.32-0.08c0.04,0,0.07,0,0.1,0.01c0.03,0.01,0.05,0.02,0.06,0.05c0.02,0.02,0.03,0.06,0.04,0.1
	C111.5,93.93,111.51,93.98,111.51,94.05"/>
<path class="st2" d="M120.97,92.79c0,0.33-0.09,0.63-0.27,0.9c-0.18,0.26-0.44,0.48-0.78,0.67c-0.34,0.18-0.75,0.32-1.23,0.41
	c-0.48,0.09-1.03,0.14-1.65,0.14c-0.56,0-1.07-0.04-1.54-0.13c-0.46-0.09-0.86-0.22-1.19-0.39c-0.33-0.17-0.59-0.39-0.76-0.65
	c-0.18-0.26-0.27-0.56-0.27-0.89v-3.42c0-0.02,0.01-0.04,0.03-0.06c0.02-0.02,0.06-0.03,0.11-0.04c0.05-0.01,0.12-0.02,0.2-0.02
	c0.08-0.01,0.19-0.01,0.33-0.01c0.13,0,0.23,0,0.32,0.01c0.09,0.01,0.16,0.02,0.21,0.02c0.05,0.01,0.09,0.02,0.11,0.04
	c0.02,0.02,0.03,0.04,0.03,0.06v3.33c0,0.26,0.06,0.48,0.17,0.67c0.12,0.19,0.28,0.35,0.5,0.48c0.22,0.13,0.48,0.22,0.79,0.28
	c0.31,0.06,0.65,0.1,1.04,0.1c0.4,0,0.75-0.03,1.05-0.09c0.31-0.06,0.57-0.16,0.78-0.28c0.21-0.13,0.38-0.28,0.49-0.46
	c0.11-0.19,0.17-0.4,0.17-0.65v-3.37c0-0.02,0.01-0.04,0.03-0.06c0.02-0.02,0.06-0.03,0.11-0.04c0.05-0.01,0.12-0.02,0.21-0.02
	c0.09-0.01,0.2-0.01,0.33-0.01c0.13,0,0.23,0,0.32,0.01c0.09,0.01,0.15,0.02,0.2,0.02c0.05,0.01,0.09,0.02,0.11,0.04
	c0.02,0.02,0.04,0.04,0.04,0.06V92.79z"/>
<path class="st2" d="M129.14,93.28c0,0.26-0.09,0.49-0.26,0.69c-0.18,0.2-0.42,0.37-0.73,0.51c-0.31,0.14-0.68,0.25-1.1,0.32
	c-0.42,0.07-0.88,0.11-1.37,0.11c-0.34,0-0.66-0.02-0.95-0.05c-0.29-0.03-0.55-0.07-0.78-0.11c-0.23-0.05-0.42-0.09-0.58-0.14
	c-0.15-0.05-0.26-0.09-0.32-0.12c-0.06-0.03-0.11-0.08-0.13-0.13c-0.03-0.05-0.04-0.12-0.04-0.21c0-0.06,0.01-0.11,0.02-0.16
	c0.01-0.04,0.03-0.07,0.05-0.1c0.02-0.03,0.05-0.04,0.08-0.05c0.03-0.01,0.07-0.01,0.11-0.01c0.07,0,0.18,0.02,0.31,0.07
	c0.13,0.05,0.31,0.1,0.52,0.16c0.21,0.06,0.46,0.11,0.76,0.16c0.3,0.05,0.64,0.07,1.03,0.07c0.29,0,0.56-0.02,0.81-0.06
	c0.24-0.04,0.45-0.1,0.63-0.18c0.18-0.08,0.31-0.17,0.41-0.29c0.09-0.11,0.14-0.24,0.14-0.39c0-0.16-0.07-0.29-0.2-0.4
	c-0.13-0.11-0.31-0.21-0.52-0.29c-0.22-0.08-0.46-0.16-0.74-0.23c-0.27-0.07-0.56-0.14-0.85-0.21c-0.29-0.07-0.57-0.15-0.84-0.24
	c-0.27-0.09-0.52-0.19-0.73-0.31c-0.22-0.12-0.39-0.26-0.53-0.42c-0.13-0.16-0.2-0.35-0.2-0.58c0-0.23,0.08-0.44,0.23-0.62
	c0.15-0.18,0.37-0.33,0.65-0.45c0.27-0.12,0.6-0.21,0.99-0.28s0.79-0.1,1.23-0.1c0.23,0,0.45,0.01,0.68,0.03
	c0.23,0.02,0.44,0.05,0.65,0.08c0.2,0.04,0.38,0.08,0.54,0.12c0.16,0.04,0.26,0.08,0.31,0.11c0.05,0.03,0.08,0.05,0.1,0.06
	c0.02,0.02,0.03,0.04,0.04,0.06c0.01,0.02,0.02,0.05,0.02,0.09c0.01,0.03,0.01,0.08,0.01,0.13c0,0.05,0,0.1-0.01,0.14
	c-0.01,0.04-0.02,0.07-0.04,0.1c-0.02,0.03-0.04,0.05-0.07,0.06c-0.03,0.01-0.06,0.02-0.1,0.02c-0.06,0-0.15-0.02-0.27-0.06
	c-0.12-0.04-0.27-0.08-0.45-0.13c-0.18-0.05-0.39-0.09-0.63-0.14c-0.24-0.04-0.52-0.06-0.82-0.06c-0.28,0-0.53,0.02-0.74,0.06
	s-0.38,0.1-0.52,0.16c-0.14,0.07-0.24,0.15-0.31,0.24c-0.07,0.09-0.1,0.19-0.1,0.3c0,0.15,0.07,0.28,0.2,0.4
	c0.13,0.11,0.31,0.21,0.52,0.29s0.47,0.16,0.74,0.23c0.28,0.07,0.56,0.14,0.85,0.22c0.29,0.07,0.57,0.15,0.85,0.24
	c0.28,0.09,0.53,0.19,0.74,0.31c0.22,0.12,0.39,0.26,0.53,0.42C129.07,92.87,129.14,93.06,129.14,93.28"/>
<path class="st2" d="M137.36,89.63c0,0.05-0.01,0.1-0.02,0.14c-0.01,0.04-0.03,0.07-0.05,0.1c-0.02,0.02-0.05,0.04-0.09,0.05
	c-0.03,0.01-0.07,0.02-0.11,0.02h-2.87v4.78c0,0.02-0.01,0.04-0.03,0.06c-0.02,0.02-0.06,0.03-0.11,0.04
	c-0.05,0.01-0.12,0.02-0.21,0.03c-0.09,0.01-0.19,0.01-0.33,0.01c-0.13,0-0.23,0-0.32-0.01c-0.09-0.01-0.16-0.02-0.21-0.03
	c-0.05-0.01-0.09-0.02-0.11-0.04c-0.02-0.02-0.03-0.04-0.03-0.06v-4.78h-2.87c-0.04,0-0.08-0.01-0.11-0.02
	c-0.03-0.01-0.06-0.03-0.08-0.05c-0.02-0.02-0.04-0.06-0.05-0.1c-0.01-0.04-0.02-0.09-0.02-0.14c0-0.05,0.01-0.1,0.02-0.14
	c0.01-0.04,0.03-0.07,0.05-0.1c0.02-0.03,0.05-0.04,0.08-0.06c0.03-0.01,0.07-0.02,0.11-0.02h7.09c0.04,0,0.08,0.01,0.11,0.02
	c0.03,0.01,0.06,0.03,0.09,0.06c0.02,0.02,0.04,0.06,0.05,0.1C137.35,89.53,137.36,89.58,137.36,89.63"/>
<path class="st2" d="M146.92,92.01c0,0.45-0.1,0.85-0.29,1.2c-0.19,0.36-0.48,0.66-0.87,0.91c-0.39,0.25-0.87,0.44-1.45,0.58
	c-0.58,0.13-1.26,0.2-2.04,0.2c-0.77,0-1.43-0.06-1.99-0.19c-0.56-0.12-1.02-0.3-1.39-0.54c-0.37-0.24-0.64-0.53-0.82-0.88
	c-0.18-0.35-0.27-0.75-0.27-1.21c0-0.43,0.1-0.83,0.29-1.18c0.19-0.36,0.49-0.66,0.87-0.9c0.39-0.25,0.87-0.44,1.46-0.57
	c0.58-0.14,1.26-0.2,2.04-0.2c0.75,0,1.41,0.06,1.96,0.18c0.56,0.12,1.02,0.3,1.39,0.53c0.37,0.23,0.65,0.52,0.83,0.87
	C146.83,91.17,146.92,91.56,146.92,92.01 M145.49,92.06c0-0.31-0.05-0.6-0.15-0.87c-0.1-0.27-0.27-0.5-0.51-0.7
	c-0.24-0.2-0.56-0.35-0.96-0.46c-0.4-0.11-0.89-0.17-1.48-0.17c-0.59,0-1.08,0.06-1.48,0.18c-0.4,0.12-0.72,0.28-0.97,0.48
	c-0.25,0.2-0.43,0.43-0.53,0.7c-0.11,0.27-0.16,0.54-0.16,0.84c0,0.32,0.05,0.62,0.15,0.89c0.1,0.27,0.27,0.51,0.5,0.7
	c0.24,0.2,0.55,0.35,0.95,0.46c0.4,0.11,0.89,0.16,1.49,0.16c0.59,0,1.09-0.06,1.5-0.18c0.4-0.12,0.73-0.28,0.98-0.48
	c0.25-0.2,0.42-0.44,0.53-0.7C145.43,92.64,145.49,92.36,145.49,92.06"/>
<path class="st2" d="M160.15,94.72c0,0.02-0.01,0.04-0.03,0.06c-0.02,0.02-0.06,0.03-0.11,0.04c-0.05,0.01-0.12,0.02-0.21,0.03
	c-0.08,0.01-0.19,0.01-0.33,0.01c-0.12,0-0.23,0-0.32-0.01c-0.09-0.01-0.16-0.02-0.21-0.03c-0.05-0.01-0.09-0.02-0.11-0.04
	c-0.02-0.02-0.03-0.04-0.03-0.06v-4.8h-0.02l-3.59,4.82c-0.02,0.02-0.04,0.04-0.07,0.05c-0.03,0.01-0.07,0.03-0.13,0.04
	s-0.12,0.02-0.2,0.02c-0.08,0-0.17,0.01-0.27,0.01c-0.11,0-0.2,0-0.28-0.01c-0.08-0.01-0.15-0.01-0.2-0.02
	c-0.05-0.01-0.09-0.02-0.12-0.04c-0.03-0.01-0.05-0.03-0.06-0.05l-3.44-4.82h-0.01v4.8c0,0.02-0.01,0.04-0.03,0.06
	c-0.02,0.02-0.06,0.03-0.11,0.04c-0.05,0.01-0.12,0.02-0.21,0.03c-0.09,0.01-0.2,0.01-0.33,0.01c-0.13,0-0.24,0-0.32-0.01
	c-0.09-0.01-0.16-0.02-0.21-0.03c-0.05-0.01-0.09-0.02-0.1-0.04c-0.02-0.02-0.03-0.04-0.03-0.06v-5.07c0-0.12,0.06-0.2,0.18-0.26
	c0.12-0.05,0.25-0.08,0.39-0.08h0.83c0.17,0,0.32,0.01,0.45,0.03c0.13,0.02,0.24,0.04,0.34,0.08c0.1,0.04,0.18,0.08,0.24,0.14
	c0.06,0.06,0.12,0.12,0.17,0.2l2.92,3.99h0.04l3.03-3.98c0.06-0.09,0.12-0.16,0.19-0.22c0.07-0.06,0.15-0.11,0.23-0.14
	c0.08-0.04,0.18-0.06,0.28-0.08c0.1-0.02,0.22-0.02,0.35-0.02h0.87c0.08,0,0.16,0.01,0.23,0.02c0.07,0.01,0.13,0.03,0.18,0.06
	c0.05,0.03,0.09,0.06,0.12,0.1c0.03,0.04,0.05,0.09,0.05,0.15V94.72z"/>
<path class="st2" d="M172.78,90.93c0,0.27-0.08,0.52-0.25,0.74c-0.17,0.22-0.41,0.41-0.72,0.57c-0.31,0.16-0.7,0.28-1.15,0.36
	c-0.45,0.08-1,0.13-1.63,0.13h-1.16v1.98c0,0.02-0.01,0.04-0.04,0.06c-0.02,0.02-0.06,0.03-0.11,0.04
	c-0.05,0.01-0.12,0.02-0.21,0.03c-0.09,0.01-0.2,0.01-0.33,0.01c-0.13,0-0.24,0-0.33-0.01c-0.09-0.01-0.16-0.02-0.21-0.03
	c-0.05-0.01-0.09-0.02-0.11-0.04s-0.03-0.04-0.03-0.06v-5.08c0-0.11,0.06-0.19,0.17-0.24c0.11-0.05,0.23-0.07,0.37-0.07h2.18
	c0.22,0,0.43,0.01,0.63,0.02c0.2,0.01,0.44,0.03,0.72,0.06s0.56,0.09,0.84,0.18c0.29,0.09,0.53,0.2,0.73,0.33
	c0.2,0.13,0.35,0.28,0.46,0.45C172.72,90.53,172.78,90.72,172.78,90.93 M171.35,90.99c0-0.22-0.08-0.41-0.23-0.56
	c-0.15-0.15-0.35-0.26-0.57-0.34c-0.23-0.07-0.47-0.12-0.71-0.14c-0.24-0.02-0.48-0.03-0.71-0.03h-1.25v2.21h1.22
	c0.41,0,0.75-0.03,1.02-0.08c0.27-0.06,0.5-0.14,0.68-0.24c0.18-0.1,0.32-0.22,0.42-0.36C171.3,91.31,171.35,91.15,171.35,90.99"/>
<path class="st2" d="M181.29,94.57c0.04,0.06,0.06,0.11,0.07,0.15c0,0.04-0.02,0.07-0.06,0.09c-0.04,0.02-0.11,0.03-0.21,0.04
	c-0.1,0.01-0.23,0.01-0.39,0.01c-0.16,0-0.29,0-0.39-0.01c-0.1,0-0.17-0.01-0.22-0.02c-0.05-0.01-0.09-0.02-0.11-0.04
	c-0.02-0.02-0.05-0.04-0.07-0.06l-0.87-1.34h-4.24l-0.83,1.32c-0.02,0.03-0.04,0.05-0.06,0.07c-0.03,0.02-0.06,0.03-0.11,0.05
	c-0.05,0.01-0.12,0.02-0.21,0.03c-0.09,0.01-0.21,0.01-0.36,0.01c-0.15,0-0.28,0-0.37-0.01c-0.1-0.01-0.17-0.02-0.2-0.04
	c-0.04-0.02-0.06-0.05-0.06-0.09c0-0.04,0.02-0.09,0.07-0.15l3.42-5.12c0.02-0.03,0.05-0.06,0.08-0.08
	c0.03-0.02,0.08-0.04,0.15-0.05c0.07-0.01,0.15-0.02,0.25-0.02c0.1,0,0.23-0.01,0.39-0.01c0.17,0,0.31,0,0.42,0.01
	c0.11,0,0.2,0.01,0.27,0.02c0.07,0.01,0.12,0.03,0.16,0.05c0.04,0.02,0.07,0.05,0.09,0.08L181.29,94.57z M176.9,90.05L176.9,90.05
	l-1.77,2.75h3.55L176.9,90.05z"/>
<path class="st2" d="M184.35,94.72c0,0.02-0.01,0.04-0.03,0.06c-0.02,0.02-0.06,0.03-0.11,0.04c-0.05,0.01-0.12,0.02-0.21,0.03
	c-0.09,0.01-0.2,0.01-0.33,0.01c-0.13,0-0.23,0-0.32-0.01c-0.09-0.01-0.16-0.02-0.21-0.03c-0.05-0.01-0.09-0.02-0.11-0.04
	c-0.02-0.02-0.03-0.04-0.03-0.06v-5.29c0-0.02,0.01-0.04,0.04-0.06c0.02-0.02,0.06-0.03,0.12-0.04c0.06-0.01,0.13-0.02,0.21-0.03
	c0.09-0.01,0.19-0.01,0.31-0.01c0.13,0,0.24,0,0.33,0.01c0.09,0.01,0.16,0.02,0.21,0.03c0.05,0.01,0.09,0.02,0.11,0.04
	c0.02,0.02,0.03,0.04,0.03,0.06V94.72z"/>
<path class="st2" d="M194.77,94.52c0,0.06-0.02,0.11-0.05,0.15c-0.04,0.04-0.08,0.07-0.14,0.1c-0.06,0.03-0.12,0.04-0.19,0.06
	c-0.07,0.01-0.14,0.02-0.21,0.02h-0.45c-0.14,0-0.26-0.01-0.37-0.02c-0.11-0.02-0.21-0.04-0.3-0.08c-0.1-0.04-0.19-0.1-0.28-0.17
	c-0.1-0.07-0.2-0.16-0.3-0.27l-3.11-3.13c-0.16-0.16-0.33-0.33-0.49-0.51c-0.17-0.18-0.32-0.35-0.46-0.52h-0.02
	c0.01,0.2,0.02,0.41,0.02,0.63c0.01,0.21,0.01,0.42,0.01,0.63v3.33c0,0.02-0.01,0.04-0.03,0.06c-0.02,0.02-0.06,0.03-0.11,0.04
	c-0.05,0.01-0.12,0.02-0.21,0.03c-0.09,0.01-0.19,0.01-0.33,0.01s-0.24,0-0.33-0.01c-0.09-0.01-0.15-0.02-0.2-0.03
	c-0.05-0.01-0.09-0.02-0.11-0.04c-0.02-0.02-0.03-0.04-0.03-0.06v-5.08c0-0.11,0.06-0.19,0.18-0.24c0.12-0.05,0.25-0.07,0.39-0.07
	h0.67c0.16,0,0.29,0.01,0.4,0.02c0.1,0.01,0.2,0.04,0.28,0.07c0.08,0.03,0.17,0.08,0.24,0.14c0.08,0.06,0.16,0.13,0.25,0.22
	l2.39,2.42c0.15,0.15,0.29,0.29,0.43,0.43c0.14,0.14,0.27,0.28,0.4,0.41c0.13,0.14,0.25,0.27,0.38,0.4c0.12,0.13,0.25,0.27,0.37,0.4
	h0.01c-0.01-0.22-0.02-0.46-0.02-0.7c0-0.24,0-0.48,0-0.7v-2.99c0-0.02,0.01-0.04,0.03-0.06c0.02-0.02,0.06-0.03,0.11-0.04
	c0.05-0.01,0.12-0.02,0.21-0.03c0.09-0.01,0.2-0.01,0.34-0.01c0.12,0,0.23,0,0.32,0.01c0.09,0.01,0.16,0.02,0.21,0.03
	c0.05,0.01,0.09,0.03,0.11,0.04c0.02,0.02,0.03,0.04,0.03,0.06V94.52z"/>
<path class="st2" d="M203.87,89.63c0,0.05-0.01,0.1-0.02,0.14c-0.01,0.04-0.03,0.07-0.05,0.1c-0.02,0.02-0.05,0.04-0.09,0.05
	c-0.03,0.01-0.07,0.02-0.11,0.02h-2.87v4.78c0,0.02-0.01,0.04-0.03,0.06c-0.02,0.02-0.06,0.03-0.11,0.04
	c-0.05,0.01-0.12,0.02-0.21,0.03c-0.09,0.01-0.19,0.01-0.33,0.01c-0.13,0-0.23,0-0.32-0.01c-0.09-0.01-0.16-0.02-0.21-0.03
	c-0.05-0.01-0.09-0.02-0.11-0.04c-0.02-0.02-0.03-0.04-0.03-0.06v-4.78h-2.87c-0.04,0-0.08-0.01-0.11-0.02
	c-0.03-0.01-0.06-0.03-0.08-0.05c-0.02-0.02-0.04-0.06-0.05-0.1c-0.01-0.04-0.02-0.09-0.02-0.14c0-0.05,0.01-0.1,0.02-0.14
	c0.01-0.04,0.03-0.07,0.05-0.1c0.02-0.03,0.05-0.04,0.08-0.06c0.03-0.01,0.07-0.02,0.11-0.02h7.09c0.04,0,0.08,0.01,0.11,0.02
	c0.03,0.01,0.06,0.03,0.09,0.06c0.02,0.02,0.04,0.06,0.05,0.1C203.87,89.53,203.87,89.58,203.87,89.63"/>
<path class="st2" d="M206.7,94.72c0,0.02-0.01,0.04-0.03,0.06c-0.02,0.02-0.06,0.03-0.11,0.04c-0.05,0.01-0.12,0.02-0.21,0.03
	c-0.09,0.01-0.2,0.01-0.33,0.01c-0.13,0-0.23,0-0.32-0.01c-0.09-0.01-0.16-0.02-0.21-0.03c-0.05-0.01-0.09-0.02-0.11-0.04
	c-0.02-0.02-0.03-0.04-0.03-0.06v-5.29c0-0.02,0.01-0.04,0.04-0.06c0.02-0.02,0.06-0.03,0.12-0.04c0.06-0.01,0.13-0.02,0.21-0.03
	c0.09-0.01,0.19-0.01,0.31-0.01c0.13,0,0.24,0,0.33,0.01c0.09,0.01,0.16,0.02,0.21,0.03c0.05,0.01,0.09,0.02,0.11,0.04
	c0.02,0.02,0.03,0.04,0.03,0.06V94.72z"/>
<path class="st2" d="M217.12,94.52c0,0.06-0.02,0.11-0.05,0.15c-0.04,0.04-0.08,0.07-0.14,0.1c-0.06,0.03-0.12,0.04-0.19,0.06
	c-0.07,0.01-0.14,0.02-0.21,0.02h-0.45c-0.14,0-0.26-0.01-0.37-0.02c-0.11-0.02-0.21-0.04-0.3-0.08c-0.1-0.04-0.19-0.1-0.28-0.17
	c-0.1-0.07-0.2-0.16-0.3-0.27l-3.11-3.13c-0.16-0.16-0.33-0.33-0.49-0.51c-0.17-0.18-0.32-0.35-0.46-0.52h-0.02
	c0.01,0.2,0.02,0.41,0.02,0.63c0.01,0.21,0.01,0.42,0.01,0.63v3.33c0,0.02-0.01,0.04-0.03,0.06c-0.02,0.02-0.06,0.03-0.11,0.04
	c-0.05,0.01-0.12,0.02-0.21,0.03c-0.09,0.01-0.2,0.01-0.33,0.01s-0.24,0-0.33-0.01c-0.09-0.01-0.15-0.02-0.2-0.03
	c-0.05-0.01-0.09-0.02-0.11-0.04c-0.02-0.02-0.03-0.04-0.03-0.06v-5.08c0-0.11,0.06-0.19,0.18-0.24c0.12-0.05,0.25-0.07,0.39-0.07
	h0.67c0.16,0,0.29,0.01,0.4,0.02c0.11,0.01,0.2,0.04,0.28,0.07c0.08,0.03,0.17,0.08,0.24,0.14c0.08,0.06,0.16,0.13,0.25,0.22
	l2.39,2.42c0.15,0.15,0.29,0.29,0.43,0.43s0.27,0.28,0.4,0.41c0.13,0.14,0.25,0.27,0.38,0.4c0.12,0.13,0.25,0.27,0.37,0.4h0.01
	c-0.01-0.22-0.02-0.46-0.02-0.7c0-0.24,0-0.48,0-0.7v-2.99c0-0.02,0.01-0.04,0.03-0.06c0.02-0.02,0.06-0.03,0.11-0.04
	c0.05-0.01,0.12-0.02,0.21-0.03c0.09-0.01,0.2-0.01,0.34-0.01c0.12,0,0.23,0,0.32,0.01c0.09,0.01,0.16,0.02,0.21,0.03
	c0.05,0.01,0.09,0.03,0.11,0.04c0.02,0.02,0.03,0.04,0.03,0.06V94.52z"/>
<path class="st2" d="M227.49,90.07c0,0.05-0.01,0.1-0.02,0.14c-0.01,0.04-0.03,0.07-0.05,0.1c-0.02,0.03-0.05,0.05-0.08,0.06
	c-0.03,0.01-0.07,0.02-0.1,0.02c-0.06,0-0.17-0.03-0.32-0.08c-0.15-0.05-0.34-0.11-0.59-0.18s-0.54-0.12-0.89-0.18
	c-0.34-0.05-0.75-0.08-1.23-0.08c-0.56,0-1.07,0.06-1.51,0.17c-0.45,0.11-0.82,0.26-1.13,0.46c-0.31,0.2-0.55,0.43-0.71,0.7
	c-0.17,0.27-0.25,0.56-0.25,0.88c0,0.35,0.09,0.66,0.27,0.94c0.18,0.27,0.43,0.5,0.75,0.69c0.32,0.19,0.7,0.33,1.15,0.43
	c0.44,0.1,0.93,0.14,1.46,0.14c0.32,0,0.63-0.02,0.96-0.06c0.32-0.04,0.62-0.1,0.9-0.19v-1.61h-2.36c-0.09,0-0.16-0.02-0.2-0.07
	c-0.04-0.05-0.07-0.12-0.07-0.23c0-0.05,0.01-0.1,0.02-0.14c0.01-0.04,0.03-0.07,0.05-0.09c0.02-0.02,0.05-0.04,0.08-0.05
	c0.03-0.01,0.07-0.02,0.12-0.02h3.24c0.06,0,0.12,0.01,0.17,0.02c0.06,0.01,0.11,0.03,0.16,0.05c0.05,0.02,0.08,0.05,0.11,0.09
	c0.03,0.04,0.04,0.09,0.04,0.14v2.1c0,0.07-0.02,0.14-0.07,0.19c-0.05,0.05-0.15,0.1-0.3,0.14c-0.15,0.04-0.35,0.09-0.59,0.13
	c-0.24,0.05-0.49,0.09-0.75,0.12c-0.26,0.03-0.52,0.06-0.78,0.08c-0.26,0.02-0.52,0.03-0.78,0.03c-0.79,0-1.49-0.07-2.11-0.2
	c-0.62-0.13-1.14-0.32-1.57-0.56c-0.43-0.24-0.75-0.54-0.98-0.88c-0.23-0.34-0.34-0.72-0.34-1.14c0-0.44,0.12-0.83,0.37-1.19
	c0.24-0.35,0.59-0.66,1.03-0.91c0.44-0.25,0.98-0.44,1.6-0.58c0.62-0.14,1.31-0.21,2.07-0.21c0.39,0,0.75,0.02,1.1,0.06
	c0.34,0.04,0.65,0.08,0.91,0.13c0.27,0.05,0.49,0.1,0.67,0.16c0.18,0.06,0.31,0.11,0.37,0.14c0.07,0.04,0.11,0.08,0.14,0.13
	C227.48,89.91,227.49,89.98,227.49,90.07"/>
<polygon class="st1" points="97.8,88.27 95.3,92.3 97.8,96.33 100.31,92.3 "/>
</svg>
